<?xml version="1.0" encoding="UTF-8" standalone="no"?>
<!DOCTYPE svg PUBLIC "-//W3C//DTD SVG 1.1//EN"
 "http://www.w3.org/Graphics/SVG/1.1/DTD/svg11.dtd">
<!-- Generated by graphviz version 2.38.0 (20140413.2041)
 -->
<!-- Title: G Pages: 1 -->
<svg width="349pt" height="317pt"
 viewBox="0.00 0.00 349.00 317.00" xmlns="http://www.w3.org/2000/svg" xmlns:xlink="http://www.w3.org/1999/xlink">
<g id="graph0" class="graph" transform="scale(1 1) rotate(0) translate(4 313)">
<title>G</title>
<polygon fill="white" stroke="none" points="-4,4 -4,-313 345,-313 345,4 -4,4"/>
<!-- c101 -->
<g id="node1" class="node"><title>c101</title>
<g id="a_node1"><a xlink:href="./RoomTask.html" xlink:title="&lt;TABLE&gt;">
</a>
</g>
<g id="a_node1_0"><a xlink:href="./RoomTask.html" xlink:title="dunGen.tasks.RoomTask" target="_parent">
<polygon fill="none" stroke="black" points="22.5,-286 22.5,-305 319.5,-305 319.5,-286 22.5,-286"/>
<text text-anchor="start" x="144.5" y="-293" font-family="arial" font-size="10.00"> RoomTask </text>
<polygon fill="none" stroke="black" points="22.5,-176 22.5,-286 319.5,-286 319.5,-176 22.5,-176"/>
<text text-anchor="start" x="26.5" y="-274" font-family="arial" font-size="10.00"> # delay : double </text>
<text text-anchor="start" x="26.5" y="-261" font-family="arial" font-size="10.00"> # parent : Room </text>
<text text-anchor="start" x="26.5" y="-248" font-family="arial" font-size="10.00"> # period : double </text>
<text text-anchor="start" x="26.5" y="-235" font-family="arial" font-size="10.00"> # executionCount : int </text>
<text text-anchor="start" x="26.5" y="-222" font-family="arial" font-size="10.00"> # targetRegion : CuboidRegion </text>
<text text-anchor="start" x="26.5" y="-209" font-family="arial" font-size="10.00"> # taskNr : int </text>
<text text-anchor="start" x="26.5" y="-196" font-family="arial" font-size="10.00"> # type : RoomTask.TaskType </text>
<text text-anchor="start" x="26.5" y="-183" font-family="arial" font-size="10.00"> &#45; runCounter : int </text>
<polygon fill="none" stroke="black" points="22.5,-131 22.5,-176 319.5,-176 319.5,-131 22.5,-131"/>
<text text-anchor="start" x="26.5" y="-164" font-family="arial" font-size="10.00"> + RoomTask(parent : Room, conf : FileConfiguration, taskNr : int) </text>
<text text-anchor="start" x="26.5" y="-151" font-family="arial" font-size="10.00"> + register() </text>
<text text-anchor="start" x="26.5" y="-138" font-family="arial" font-size="10.00"> + run() </text>
</a>
</g>
<g><a xlink:href="./RoomTask.html" xlink:title="&lt;TABLE&gt;">
</a>
</g>
</g>
<!-- c107 -->
<g id="node2" class="node"><title>c107</title>
<g id="a_node2"><a xlink:href="./BlockSpawnTask.html" xlink:title="&lt;TABLE&gt;">
</a>
</g>
<g id="a_node2_1"><a xlink:href="./BlockSpawnTask.html" xlink:title="dunGen.tasks.BlockSpawnTask" target="_parent">
<polygon fill="lemonChiffon" stroke="none" points="8,-4 8,-87 333,-87 333,-4 8,-4"/>
<polygon fill="none" stroke="black" points="8.5,-67.5 8.5,-86.5 333.5,-86.5 333.5,-67.5 8.5,-67.5"/>
<text text-anchor="start" x="130" y="-74.5" font-family="arial" font-size="10.00"> BlockSpawnTask </text>
<polygon fill="none" stroke="black" points="8.5,-35.5 8.5,-67.5 333.5,-67.5 333.5,-35.5 8.5,-35.5"/>
<text text-anchor="start" x="12.5" y="-55.5" font-family="arial" font-size="10.00"> &#45; blockMaterial : Material </text>
<text text-anchor="start" x="12.5" y="-42.5" font-family="arial" font-size="10.00"> &#45; incrementVec : Vector </text>
<polygon fill="none" stroke="black" points="8.5,-3.5 8.5,-35.5 333.5,-35.5 333.5,-3.5 8.5,-3.5"/>
<text text-anchor="start" x="12.5" y="-23.5" font-family="arial" font-size="10.00"> + BlockSpawnTask(parent : Room, conf : FileConfiguration, taskNr : int) </text>
<text text-anchor="start" x="12.5" y="-10.5" font-family="arial" font-size="10.00"> + run() </text>
</a>
</g>
<g><a xlink:href="./BlockSpawnTask.html" xlink:title="&lt;TABLE&gt;">
</a>
</g>
</g>
<!-- c101&#45;&gt;c107 -->
<g id="edge1" class="edge"><title>c101:p&#45;&gt;c107:p</title>
<path fill="none" stroke="black" d="M170.5,-120.45C170.5,-108.787 170.5,-97.4116 170.5,-87.2171"/>
<polygon fill="none" stroke="black" points="167,-120.751 170.5,-130.751 174,-120.751 167,-120.751"/>
</g>
</g>
</svg>
