<?xml version="1.0" encoding="UTF-8" standalone="no"?>
<!DOCTYPE svg PUBLIC "-//W3C//DTD SVG 1.1//EN"
 "http://www.w3.org/Graphics/SVG/1.1/DTD/svg11.dtd">
<!-- Generated by graphviz version 2.38.0 (20140413.2041)
 -->
<!-- Title: G Pages: 1 -->
<svg width="1372pt" height="395pt"
 viewBox="0.00 0.00 1371.50 395.00" xmlns="http://www.w3.org/2000/svg" xmlns:xlink="http://www.w3.org/1999/xlink">
<g id="graph0" class="graph" transform="scale(1 1) rotate(0) translate(4 391)">
<title>G</title>
<polygon fill="white" stroke="none" points="-4,4 -4,-391 1367.5,-391 1367.5,4 -4,4"/>
<!-- c34 -->
<g id="node1" class="node"><title>c34</title>
<g id="a_node1"><a xlink:href="./TaskWithCallback.html" xlink:title="&lt;TABLE&gt;">
</a>
</g>
<g id="a_node1_0"><a xlink:href="./TaskWithCallback.html" xlink:title="dunGen.tasks.TaskWithCallback" target="_parent">
<polygon fill="none" stroke="black" points="229,-312 229,-331 477,-331 477,-312 229,-312"/>
<text text-anchor="start" x="310.5" y="-319" font-family="arial" font-size="10.00"> TaskWithCallback </text>
<polygon fill="none" stroke="black" points="229,-293 229,-312 477,-312 477,-293 229,-293"/>
<text text-anchor="start" x="233" y="-300" font-family="arial" font-size="10.00"> ~ callback : Function&lt;Void, Void&gt; </text>
<polygon fill="none" stroke="black" points="229,-261 229,-293 477,-293 477,-261 229,-261"/>
<text text-anchor="start" x="233" y="-281" font-family="arial" font-size="10.00"> + TaskWithCallback(callback : Function&lt;Void, Void&gt;) </text>
<text text-anchor="start" x="233" y="-268" font-family="arial" font-size="10.00"> + run() </text>
</a>
</g>
<g><a xlink:href="./TaskWithCallback.html" xlink:title="&lt;TABLE&gt;">
</a>
</g>
</g>
<!-- c35 -->
<g id="node2" class="node"><title>c35</title>
<g id="a_node2"><a xlink:href="./RoomTask.html" xlink:title="&lt;TABLE&gt;">
</a>
</g>
<g id="a_node2_1"><a xlink:href="./RoomTask.html" xlink:title="dunGen.tasks.RoomTask" target="_parent">
<polygon fill="none" stroke="black" points="512,-364 512,-383 809,-383 809,-364 512,-364"/>
<text text-anchor="start" x="634" y="-371" font-family="arial" font-size="10.00"> RoomTask </text>
<polygon fill="none" stroke="black" points="512,-254 512,-364 809,-364 809,-254 512,-254"/>
<text text-anchor="start" x="516" y="-352" font-family="arial" font-size="10.00"> # delay : double </text>
<text text-anchor="start" x="516" y="-339" font-family="arial" font-size="10.00"> # parent : Room </text>
<text text-anchor="start" x="516" y="-326" font-family="arial" font-size="10.00"> # period : double </text>
<text text-anchor="start" x="516" y="-313" font-family="arial" font-size="10.00"> # executionCount : int </text>
<text text-anchor="start" x="516" y="-300" font-family="arial" font-size="10.00"> # targetRegion : CuboidRegion </text>
<text text-anchor="start" x="516" y="-287" font-family="arial" font-size="10.00"> # taskNr : int </text>
<text text-anchor="start" x="516" y="-274" font-family="arial" font-size="10.00"> # type : RoomTask.TaskType </text>
<text text-anchor="start" x="516" y="-261" font-family="arial" font-size="10.00"> &#45; runCounter : int </text>
<polygon fill="none" stroke="black" points="512,-209 512,-254 809,-254 809,-209 512,-209"/>
<text text-anchor="start" x="516" y="-242" font-family="arial" font-size="10.00"> + RoomTask(parent : Room, conf : FileConfiguration, taskNr : int) </text>
<text text-anchor="start" x="516" y="-229" font-family="arial" font-size="10.00"> + register() </text>
<text text-anchor="start" x="516" y="-216" font-family="arial" font-size="10.00"> + run() </text>
</a>
</g>
<g><a xlink:href="./RoomTask.html" xlink:title="&lt;TABLE&gt;">
</a>
</g>
</g>
<!-- c37 -->
<g id="node4" class="node"><title>c37</title>
<g id="a_node4"><a xlink:href="./PowerTask.html" xlink:title="&lt;TABLE&gt;">
</a>
</g>
<g id="a_node4_2"><a xlink:href="./PowerTask.html" xlink:title="dunGen.tasks.PowerTask" target="_parent">
<polygon fill="none" stroke="black" points="8,-132.5 8,-151.5 306,-151.5 306,-132.5 8,-132.5"/>
<text text-anchor="start" x="129.5" y="-139.5" font-family="arial" font-size="10.00"> PowerTask </text>
<polygon fill="none" stroke="black" points="8,-87.5 8,-132.5 306,-132.5 306,-87.5 8,-87.5"/>
<text text-anchor="start" x="12" y="-120.5" font-family="arial" font-size="10.00"> &#45; convertedToGlobal : boolean </text>
<text text-anchor="start" x="12" y="-107.5" font-family="arial" font-size="10.00"> &#45; offTask : TaskWithCallback </text>
<text text-anchor="start" x="12" y="-94.5" font-family="arial" font-size="10.00"> &#45; onTime : double </text>
<polygon fill="none" stroke="black" points="8,-16.5 8,-87.5 306,-87.5 306,-16.5 8,-16.5"/>
<text text-anchor="start" x="12" y="-75.5" font-family="arial" font-size="10.00"> + PowerTask(parent : Room, conf : FileConfiguration, taskNr : int) </text>
<text text-anchor="start" x="12" y="-62.5" font-family="arial" font-size="10.00"> &#45; depower(v : Void) : Void </text>
<text text-anchor="start" x="12" y="-49.5" font-family="arial" font-size="10.00"> &#45; empower() </text>
<text text-anchor="start" x="12" y="-36.5" font-family="arial" font-size="10.00"> + register() </text>
<text text-anchor="start" x="12" y="-23.5" font-family="arial" font-size="10.00"> + run() </text>
</a>
</g>
<g><a xlink:href="./PowerTask.html" xlink:title="&lt;TABLE&gt;">
</a>
</g>
</g>
<!-- c35&#45;&gt;c37 -->
<g id="edge1" class="edge"><title>c35:p&#45;&gt;c37:p</title>
<path fill="none" stroke="black" d="M501.762,-207.944C499.168,-206.93 496.579,-205.948 494,-205 421.1,-178.211 396.303,-194.664 323,-169 309.146,-164.15 294.973,-158.386 281.032,-152.186"/>
<polygon fill="none" stroke="black" points="500.591,-211.245 511.174,-211.743 503.212,-204.754 500.591,-211.245"/>
</g>
<!-- c38 -->
<g id="node5" class="node"><title>c38</title>
<g id="a_node5"><a xlink:href="./MazeTask.html" xlink:title="&lt;TABLE&gt;">
</a>
</g>
<g id="a_node5_3"><a xlink:href="./MazeTask.html" xlink:title="dunGen.tasks.MazeTask" target="_parent">
<polygon fill="none" stroke="black" points="341,-145.5 341,-164.5 636,-164.5 636,-145.5 341,-145.5"/>
<text text-anchor="start" x="462.5" y="-152.5" font-family="arial" font-size="10.00"> MazeTask </text>
<polygon fill="none" stroke="black" points="341,-35.5 341,-145.5 636,-145.5 636,-35.5 341,-35.5"/>
<text text-anchor="start" x="345" y="-133.5" font-family="arial" font-size="10.00"> &#45; carveBestExit : int </text>
<text text-anchor="start" x="345" y="-120.5" font-family="arial" font-size="10.00"> &#45; entryCell : int </text>
<text text-anchor="start" x="345" y="-107.5" font-family="arial" font-size="10.00"> &#45; distToEntry : int[][] </text>
<text text-anchor="start" x="345" y="-94.5" font-family="arial" font-size="10.00"> &#45; mazeWalls : MazeWall[][] </text>
<text text-anchor="start" x="345" y="-81.5" font-family="arial" font-size="10.00"> &#45; mazeMaterial : Material </text>
<text text-anchor="start" x="345" y="-68.5" font-family="arial" font-size="10.00"> &#45; wayWidth : int </text>
<text text-anchor="start" x="345" y="-55.5" font-family="arial" font-size="10.00"> &#45; wallWidth : int </text>
<text text-anchor="start" x="345" y="-42.5" font-family="arial" font-size="10.00"> &#45; wallHeight : int </text>
<polygon fill="none" stroke="black" points="341,-3.5 341,-35.5 636,-35.5 636,-3.5 341,-3.5"/>
<text text-anchor="start" x="345" y="-23.5" font-family="arial" font-size="10.00"> + MazeTask(parent : Room, conf : FileConfiguration, taskNr : int) </text>
<text text-anchor="start" x="345" y="-10.5" font-family="arial" font-size="10.00"> + run() </text>
</a>
</g>
<g><a xlink:href="./MazeTask.html" xlink:title="&lt;TABLE&gt;">
</a>
</g>
</g>
<!-- c35&#45;&gt;c38 -->
<g id="edge2" class="edge"><title>c35:p&#45;&gt;c38:p</title>
<path fill="none" stroke="black" d="M582.87,-201.054C573.048,-189.09 563.069,-176.936 553.455,-165.226"/>
<polygon fill="none" stroke="black" points="580.246,-203.373 589.296,-208.881 585.656,-198.932 580.246,-203.373"/>
</g>
<!-- c39 -->
<g id="node6" class="node"><title>c39</title>
<g id="a_node6"><a xlink:href="./EntitySpawnTask.html" xlink:title="&lt;TABLE&gt;">
</a>
</g>
<g id="a_node6_4"><a xlink:href="./EntitySpawnTask.html" xlink:title="dunGen.tasks.EntitySpawnTask" target="_parent">
<polygon fill="none" stroke="black" points="670,-113.5 670,-132.5 996,-132.5 996,-113.5 670,-113.5"/>
<text text-anchor="start" x="792" y="-120.5" font-family="arial" font-size="10.00"> EntitySpawnTask </text>
<polygon fill="none" stroke="black" points="670,-68.5 670,-113.5 996,-113.5 996,-68.5 670,-68.5"/>
<text text-anchor="start" x="674" y="-101.5" font-family="arial" font-size="10.00"> &#45; MAXSPAWNPOSITIONTRIES : int </text>
<text text-anchor="start" x="674" y="-88.5" font-family="arial" font-size="10.00"> &#45; convertedToGlobal : boolean </text>
<text text-anchor="start" x="674" y="-75.5" font-family="arial" font-size="10.00"> &#45; grp : EntitySpawnTask.EntityGroup </text>
<polygon fill="none" stroke="black" points="670,-36.5 670,-68.5 996,-68.5 996,-36.5 670,-36.5"/>
<text text-anchor="start" x="674" y="-56.5" font-family="arial" font-size="10.00"> + EntitySpawnTask(parent : Room, conf : FileConfiguration, taskNr : int) </text>
<text text-anchor="start" x="674" y="-43.5" font-family="arial" font-size="10.00"> + run() </text>
</a>
</g>
<g><a xlink:href="./EntitySpawnTask.html" xlink:title="&lt;TABLE&gt;">
</a>
</g>
</g>
<!-- c35&#45;&gt;c39 -->
<g id="edge3" class="edge"><title>c35:p&#45;&gt;c39:p</title>
<path fill="none" stroke="black" d="M737.709,-200.896C757.239,-177.246 777.372,-152.864 794.072,-132.641"/>
<polygon fill="none" stroke="black" points="734.783,-198.942 731.115,-208.881 740.181,-203.399 734.783,-198.942"/>
</g>
<!-- c41 -->
<g id="node8" class="node"><title>c41</title>
<g id="a_node8"><a xlink:href="./BlockSpawnTask.html" xlink:title="&lt;TABLE&gt;">
</a>
</g>
<g id="a_node8_5"><a xlink:href="./BlockSpawnTask.html" xlink:title="dunGen.tasks.BlockSpawnTask" target="_parent">
<polygon fill="none" stroke="black" points="1031,-106.5 1031,-125.5 1356,-125.5 1356,-106.5 1031,-106.5"/>
<text text-anchor="start" x="1152.5" y="-113.5" font-family="arial" font-size="10.00"> BlockSpawnTask </text>
<polygon fill="none" stroke="black" points="1031,-74.5 1031,-106.5 1356,-106.5 1356,-74.5 1031,-74.5"/>
<text text-anchor="start" x="1035" y="-94.5" font-family="arial" font-size="10.00"> &#45; blockMaterial : Material </text>
<text text-anchor="start" x="1035" y="-81.5" font-family="arial" font-size="10.00"> &#45; incrementVec : Vector </text>
<polygon fill="none" stroke="black" points="1031,-42.5 1031,-74.5 1356,-74.5 1356,-42.5 1031,-42.5"/>
<text text-anchor="start" x="1035" y="-62.5" font-family="arial" font-size="10.00"> + BlockSpawnTask(parent : Room, conf : FileConfiguration, taskNr : int) </text>
<text text-anchor="start" x="1035" y="-49.5" font-family="arial" font-size="10.00"> + run() </text>
</a>
</g>
<g><a xlink:href="./BlockSpawnTask.html" xlink:title="&lt;TABLE&gt;">
</a>
</g>
</g>
<!-- c35&#45;&gt;c41 -->
<g id="edge4" class="edge"><title>c35:p&#45;&gt;c41:p</title>
<path fill="none" stroke="black" d="M818.215,-207.881C820.816,-206.887 823.412,-205.926 826,-205 905.693,-176.496 932.456,-195.002 1013,-169 1047.91,-157.729 1084.93,-141.384 1116.26,-126.139"/>
<polygon fill="none" stroke="black" points="816.789,-204.681 808.78,-211.616 819.366,-211.19 816.789,-204.681"/>
</g>
<!-- c36 -->
<g id="node3" class="node"><title>c36</title>
<g id="a_node3"><a xlink:href="./RoomTask.TaskType.html" xlink:title="&lt;TABLE&gt;">
</a>
</g>
<g id="a_node3_6"><a xlink:href="./RoomTask.TaskType.html" xlink:title="dunGen.tasks.RoomTask.TaskType" target="_parent">
<polygon fill="none" stroke="black" points="843,-318 843,-350 927,-350 927,-318 843,-318"/>
<text text-anchor="start" x="850" y="-338" font-family="arial" font-size="10.00"> «enumeration» </text>
<text text-anchor="start" x="860.5" y="-325" font-family="arial" font-size="10.00"> TaskType </text>
<polygon fill="none" stroke="black" points="843,-299 843,-318 927,-318 927,-299 843,-299"/>
<text text-anchor="start" x="847" y="-306" font-family="arial" font-size="10.00"> &#160;</text>
<polygon fill="none" stroke="black" points="843,-241 843,-299 927,-299 927,-241 843,-241"/>
<text text-anchor="start" x="847" y="-287" font-family="arial" font-size="10.00"> BLOCKSPAWN </text>
<text text-anchor="start" x="847" y="-274" font-family="arial" font-size="10.00"> ENTITYSPAWN </text>
<text text-anchor="start" x="847" y="-261" font-family="arial" font-size="10.00"> POWER </text>
<text text-anchor="start" x="847" y="-248" font-family="arial" font-size="10.00"> MAZE </text>
</a>
</g>
<g><a xlink:href="./RoomTask.TaskType.html" xlink:title="&lt;TABLE&gt;">
</a>
</g>
</g>
<!-- c40 -->
<g id="node7" class="node"><title>c40</title>
<g id="a_node7"><a xlink:href="./EntitySpawnTask.EntityGroup.html" xlink:title="&lt;TABLE&gt;">
</a>
</g>
<g id="a_node7_7"><a xlink:href="./EntitySpawnTask.EntityGroup.html" xlink:title="dunGen.tasks.EntitySpawnTask.EntityGroup" target="_parent">
<polygon fill="none" stroke="black" points="962,-325 962,-344 1063,-344 1063,-325 962,-325"/>
<text text-anchor="start" x="983.5" y="-332" font-family="arial" font-size="10.00"> EntityGroup </text>
<polygon fill="none" stroke="black" points="962,-267 962,-325 1063,-325 1063,-267 962,-267"/>
<text text-anchor="start" x="966" y="-313" font-family="arial" font-size="10.00"> + count : int </text>
<text text-anchor="start" x="966" y="-300" font-family="arial" font-size="10.00"> + isTarget : boolean </text>
<text text-anchor="start" x="966" y="-287" font-family="arial" font-size="10.00"> + maxCount : int </text>
<text text-anchor="start" x="966" y="-274" font-family="arial" font-size="10.00"> + type : EntityType </text>
<polygon fill="none" stroke="black" points="962,-248 962,-267 1063,-267 1063,-248 962,-248"/>
<text text-anchor="start" x="966" y="-255" font-family="arial" font-size="10.00"> + EntityGroup() </text>
</a>
</g>
<g><a xlink:href="./EntitySpawnTask.EntityGroup.html" xlink:title="&lt;TABLE&gt;">
</a>
</g>
</g>
</g>
</svg>
