<?xml version="1.0" encoding="UTF-8" standalone="no"?>
<!DOCTYPE svg PUBLIC "-//W3C//DTD SVG 1.1//EN"
 "http://www.w3.org/Graphics/SVG/1.1/DTD/svg11.dtd">
<!-- Generated by graphviz version 2.38.0 (20140413.2041)
 -->
<!-- Title: G Pages: 1 -->
<svg width="125pt" height="112pt"
 viewBox="0.00 0.00 125.00 112.00" xmlns="http://www.w3.org/2000/svg" xmlns:xlink="http://www.w3.org/1999/xlink">
<g id="graph0" class="graph" transform="scale(1 1) rotate(0) translate(4 108)">
<title>G</title>
<polygon fill="white" stroke="none" points="-4,4 -4,-108 121,-108 121,4 -4,4"/>
<!-- c194 -->
<g id="node1" class="node"><title>c194</title>
<g id="a_node1"><a xlink:href="./EntitySpawnTask.EntityGroup.html" xlink:title="&lt;TABLE&gt;">
</a>
</g>
<g id="a_node1_0"><a xlink:href="./EntitySpawnTask.EntityGroup.html" xlink:title="dunGen.tasks.EntitySpawnTask.EntityGroup" target="_parent">
<polygon fill="lemonChiffon" stroke="none" points="8,-4 8,-100 109,-100 109,-4 8,-4"/>
<polygon fill="none" stroke="black" points="8.5,-81 8.5,-100 109.5,-100 109.5,-81 8.5,-81"/>
<text text-anchor="start" x="30" y="-88" font-family="arial" font-size="10.00"> EntityGroup </text>
<polygon fill="none" stroke="black" points="8.5,-23 8.5,-81 109.5,-81 109.5,-23 8.5,-23"/>
<text text-anchor="start" x="12.5" y="-69" font-family="arial" font-size="10.00"> + count : int </text>
<text text-anchor="start" x="12.5" y="-56" font-family="arial" font-size="10.00"> + isTarget : boolean </text>
<text text-anchor="start" x="12.5" y="-43" font-family="arial" font-size="10.00"> + maxCount : int </text>
<text text-anchor="start" x="12.5" y="-30" font-family="arial" font-size="10.00"> + type : EntityType </text>
<polygon fill="none" stroke="black" points="8.5,-4 8.5,-23 109.5,-23 109.5,-4 8.5,-4"/>
<text text-anchor="start" x="12.5" y="-11" font-family="arial" font-size="10.00"> + EntityGroup() </text>
</a>
</g>
<g><a xlink:href="./EntitySpawnTask.EntityGroup.html" xlink:title="&lt;TABLE&gt;">
</a>
</g>
</g>
</g>
</svg>
