<?xml version="1.0" encoding="UTF-8" standalone="no"?>
<!DOCTYPE svg PUBLIC "-//W3C//DTD SVG 1.1//EN"
 "http://www.w3.org/Graphics/SVG/1.1/DTD/svg11.dtd">
<!-- Generated by graphviz version 2.38.0 (20140413.2041)
 -->
<!-- Title: G Pages: 1 -->
<svg width="350pt" height="330pt"
 viewBox="0.00 0.00 350.00 330.00" xmlns="http://www.w3.org/2000/svg" xmlns:xlink="http://www.w3.org/1999/xlink">
<g id="graph0" class="graph" transform="scale(1 1) rotate(0) translate(4 326)">
<title>G</title>
<polygon fill="white" stroke="none" points="-4,4 -4,-326 346,-326 346,4 -4,4"/>
<!-- c168 -->
<g id="node1" class="node"><title>c168</title>
<g id="a_node1"><a xlink:href="./RoomTask.html" xlink:title="&lt;TABLE&gt;">
</a>
</g>
<g id="a_node1_0"><a xlink:href="./RoomTask.html" xlink:title="dunGen.tasks.RoomTask" target="_parent">
<polygon fill="none" stroke="black" points="23,-299 23,-318 320,-318 320,-299 23,-299"/>
<text text-anchor="start" x="145" y="-306" font-family="arial" font-size="10.00"> RoomTask </text>
<polygon fill="none" stroke="black" points="23,-189 23,-299 320,-299 320,-189 23,-189"/>
<text text-anchor="start" x="27" y="-287" font-family="arial" font-size="10.00"> # delay : double </text>
<text text-anchor="start" x="27" y="-274" font-family="arial" font-size="10.00"> # parent : Room </text>
<text text-anchor="start" x="27" y="-261" font-family="arial" font-size="10.00"> # period : double </text>
<text text-anchor="start" x="27" y="-248" font-family="arial" font-size="10.00"> # executionCount : int </text>
<text text-anchor="start" x="27" y="-235" font-family="arial" font-size="10.00"> # targetRegion : CuboidRegion </text>
<text text-anchor="start" x="27" y="-222" font-family="arial" font-size="10.00"> # taskNr : int </text>
<text text-anchor="start" x="27" y="-209" font-family="arial" font-size="10.00"> # type : RoomTask.TaskType </text>
<text text-anchor="start" x="27" y="-196" font-family="arial" font-size="10.00"> &#45; runCounter : int </text>
<polygon fill="none" stroke="black" points="23,-144 23,-189 320,-189 320,-144 23,-144"/>
<text text-anchor="start" x="27" y="-177" font-family="arial" font-size="10.00"> + RoomTask(parent : Room, conf : FileConfiguration, taskNr : int) </text>
<text text-anchor="start" x="27" y="-164" font-family="arial" font-size="10.00"> + register() </text>
<text text-anchor="start" x="27" y="-151" font-family="arial" font-size="10.00"> + run() </text>
</a>
</g>
<g><a xlink:href="./RoomTask.html" xlink:title="&lt;TABLE&gt;">
</a>
</g>
</g>
<!-- c172 -->
<g id="node2" class="node"><title>c172</title>
<g id="a_node2"><a xlink:href="./EntitySpawnTask.html" xlink:title="&lt;TABLE&gt;">
</a>
</g>
<g id="a_node2_1"><a xlink:href="./EntitySpawnTask.html" xlink:title="dunGen.tasks.EntitySpawnTask" target="_parent">
<polygon fill="lemonChiffon" stroke="none" points="8,-4 8,-100 334,-100 334,-4 8,-4"/>
<polygon fill="none" stroke="black" points="8,-81 8,-100 334,-100 334,-81 8,-81"/>
<text text-anchor="start" x="130" y="-88" font-family="arial" font-size="10.00"> EntitySpawnTask </text>
<polygon fill="none" stroke="black" points="8,-36 8,-81 334,-81 334,-36 8,-36"/>
<text text-anchor="start" x="12" y="-69" font-family="arial" font-size="10.00"> &#45; MAXSPAWNPOSITIONTRIES : int </text>
<text text-anchor="start" x="12" y="-56" font-family="arial" font-size="10.00"> &#45; convertedToGlobal : boolean </text>
<text text-anchor="start" x="12" y="-43" font-family="arial" font-size="10.00"> &#45; grp : EntitySpawnTask.EntityGroup </text>
<polygon fill="none" stroke="black" points="8,-4 8,-36 334,-36 334,-4 8,-4"/>
<text text-anchor="start" x="12" y="-24" font-family="arial" font-size="10.00"> + EntitySpawnTask(parent : Room, conf : FileConfiguration, taskNr : int) </text>
<text text-anchor="start" x="12" y="-11" font-family="arial" font-size="10.00"> + run() </text>
</a>
</g>
<g><a xlink:href="./EntitySpawnTask.html" xlink:title="&lt;TABLE&gt;">
</a>
</g>
</g>
<!-- c168&#45;&gt;c172 -->
<g id="edge1" class="edge"><title>c168:p&#45;&gt;c172:p</title>
<path fill="none" stroke="black" d="M171,-133.681C171,-122.158 171,-110.813 171,-100.435"/>
<polygon fill="none" stroke="black" points="167.5,-133.833 171,-143.833 174.5,-133.833 167.5,-133.833"/>
</g>
</g>
</svg>
