<?xml version="1.0" encoding="UTF-8" standalone="no"?>
<!DOCTYPE svg PUBLIC "-//W3C//DTD SVG 1.1//EN"
 "http://www.w3.org/Graphics/SVG/1.1/DTD/svg11.dtd">
<!-- Generated by graphviz version 2.38.0 (20140413.2041)
 -->
<!-- Title: G Pages: 1 -->
<svg width="321pt" height="395pt"
 viewBox="0.00 0.00 321.00 395.00" xmlns="http://www.w3.org/2000/svg" xmlns:xlink="http://www.w3.org/1999/xlink">
<g id="graph0" class="graph" transform="scale(1 1) rotate(0) translate(4 391)">
<title>G</title>
<polygon fill="white" stroke="none" points="-4,4 -4,-391 317,-391 317,4 -4,4"/>
<!-- c273 -->
<g id="node1" class="node"><title>c273</title>
<g id="a_node1"><a xlink:href="./RoomTask.html" xlink:title="&lt;TABLE&gt;">
</a>
</g>
<g id="a_node1_0"><a xlink:href="./RoomTask.html" xlink:title="dunGen.tasks.RoomTask" target="_parent">
<polygon fill="none" stroke="black" points="8.5,-364 8.5,-383 305.5,-383 305.5,-364 8.5,-364"/>
<text text-anchor="start" x="130.5" y="-371" font-family="arial" font-size="10.00"> RoomTask </text>
<polygon fill="none" stroke="black" points="8.5,-254 8.5,-364 305.5,-364 305.5,-254 8.5,-254"/>
<text text-anchor="start" x="12.5" y="-352" font-family="arial" font-size="10.00"> # delay : double </text>
<text text-anchor="start" x="12.5" y="-339" font-family="arial" font-size="10.00"> # parent : Room </text>
<text text-anchor="start" x="12.5" y="-326" font-family="arial" font-size="10.00"> # period : double </text>
<text text-anchor="start" x="12.5" y="-313" font-family="arial" font-size="10.00"> # executionCount : int </text>
<text text-anchor="start" x="12.5" y="-300" font-family="arial" font-size="10.00"> # targetRegion : CuboidRegion </text>
<text text-anchor="start" x="12.5" y="-287" font-family="arial" font-size="10.00"> # taskNr : int </text>
<text text-anchor="start" x="12.5" y="-274" font-family="arial" font-size="10.00"> # type : RoomTask.TaskType </text>
<text text-anchor="start" x="12.5" y="-261" font-family="arial" font-size="10.00"> &#45; runCounter : int </text>
<polygon fill="none" stroke="black" points="8.5,-209 8.5,-254 305.5,-254 305.5,-209 8.5,-209"/>
<text text-anchor="start" x="12.5" y="-242" font-family="arial" font-size="10.00"> + RoomTask(parent : Room, conf : FileConfiguration, taskNr : int) </text>
<text text-anchor="start" x="12.5" y="-229" font-family="arial" font-size="10.00"> + register() </text>
<text text-anchor="start" x="12.5" y="-216" font-family="arial" font-size="10.00"> + run() </text>
</a>
</g>
<g><a xlink:href="./RoomTask.html" xlink:title="&lt;TABLE&gt;">
</a>
</g>
</g>
<!-- c276 -->
<g id="node2" class="node"><title>c276</title>
<g id="a_node2"><a xlink:href="./MazeTask.html" xlink:title="&lt;TABLE&gt;">
</a>
</g>
<g id="a_node2_1"><a xlink:href="./MazeTask.html" xlink:title="dunGen.tasks.MazeTask" target="_parent">
<polygon fill="lemonChiffon" stroke="none" points="9,-4 9,-165 304,-165 304,-4 9,-4"/>
<polygon fill="none" stroke="black" points="9.5,-145.5 9.5,-164.5 304.5,-164.5 304.5,-145.5 9.5,-145.5"/>
<text text-anchor="start" x="131" y="-152.5" font-family="arial" font-size="10.00"> MazeTask </text>
<polygon fill="none" stroke="black" points="9.5,-35.5 9.5,-145.5 304.5,-145.5 304.5,-35.5 9.5,-35.5"/>
<text text-anchor="start" x="13.5" y="-133.5" font-family="arial" font-size="10.00"> &#45; carveBestExit : int </text>
<text text-anchor="start" x="13.5" y="-120.5" font-family="arial" font-size="10.00"> &#45; entryCell : int </text>
<text text-anchor="start" x="13.5" y="-107.5" font-family="arial" font-size="10.00"> &#45; distToEntry : int[][] </text>
<text text-anchor="start" x="13.5" y="-94.5" font-family="arial" font-size="10.00"> &#45; mazeWalls : MazeWall[][] </text>
<text text-anchor="start" x="13.5" y="-81.5" font-family="arial" font-size="10.00"> &#45; mazeMaterial : Material </text>
<text text-anchor="start" x="13.5" y="-68.5" font-family="arial" font-size="10.00"> &#45; wayWidth : int </text>
<text text-anchor="start" x="13.5" y="-55.5" font-family="arial" font-size="10.00"> &#45; wallWidth : int </text>
<text text-anchor="start" x="13.5" y="-42.5" font-family="arial" font-size="10.00"> &#45; wallHeight : int </text>
<polygon fill="none" stroke="black" points="9.5,-3.5 9.5,-35.5 304.5,-35.5 304.5,-3.5 9.5,-3.5"/>
<text text-anchor="start" x="13.5" y="-23.5" font-family="arial" font-size="10.00"> + MazeTask(parent : Room, conf : FileConfiguration, taskNr : int) </text>
<text text-anchor="start" x="13.5" y="-10.5" font-family="arial" font-size="10.00"> + run() </text>
</a>
</g>
<g><a xlink:href="./MazeTask.html" xlink:title="&lt;TABLE&gt;">
</a>
</g>
</g>
<!-- c273&#45;&gt;c276 -->
<g id="edge1" class="edge"><title>c273:p&#45;&gt;c276:p</title>
<path fill="none" stroke="black" d="M156.5,-198.659C156.5,-187.471 156.5,-176.156 156.5,-165.226"/>
<polygon fill="none" stroke="black" points="153,-198.881 156.5,-208.881 160,-198.881 153,-198.881"/>
</g>
</g>
</svg>
