<?xml version="1.0" encoding="UTF-8" standalone="no"?>
<!DOCTYPE svg PUBLIC "-//W3C//DTD SVG 1.1//EN"
 "http://www.w3.org/Graphics/SVG/1.1/DTD/svg11.dtd">
<!-- Generated by graphviz version 2.38.0 (20140413.2041)
 -->
<!-- Title: G Pages: 1 -->
<svg width="322pt" height="369pt"
 viewBox="0.00 0.00 322.00 369.00" xmlns="http://www.w3.org/2000/svg" xmlns:xlink="http://www.w3.org/1999/xlink">
<g id="graph0" class="graph" transform="scale(1 1) rotate(0) translate(4 365)">
<title>G</title>
<polygon fill="white" stroke="none" points="-4,4 -4,-365 318,-365 318,4 -4,4"/>
<!-- c421 -->
<g id="node1" class="node"><title>c421</title>
<g id="a_node1"><a xlink:href="./RoomTask.html" xlink:title="&lt;TABLE&gt;">
</a>
</g>
<g id="a_node1_0"><a xlink:href="./RoomTask.html" xlink:title="dunGen.tasks.RoomTask" target="_parent">
<polygon fill="none" stroke="black" points="9,-338 9,-357 306,-357 306,-338 9,-338"/>
<text text-anchor="start" x="131" y="-345" font-family="arial" font-size="10.00"> RoomTask </text>
<polygon fill="none" stroke="black" points="9,-228 9,-338 306,-338 306,-228 9,-228"/>
<text text-anchor="start" x="13" y="-326" font-family="arial" font-size="10.00"> # delay : double </text>
<text text-anchor="start" x="13" y="-313" font-family="arial" font-size="10.00"> # parent : Room </text>
<text text-anchor="start" x="13" y="-300" font-family="arial" font-size="10.00"> # period : double </text>
<text text-anchor="start" x="13" y="-287" font-family="arial" font-size="10.00"> # executionCount : int </text>
<text text-anchor="start" x="13" y="-274" font-family="arial" font-size="10.00"> # targetRegion : CuboidRegion </text>
<text text-anchor="start" x="13" y="-261" font-family="arial" font-size="10.00"> # taskNr : int </text>
<text text-anchor="start" x="13" y="-248" font-family="arial" font-size="10.00"> # type : RoomTask.TaskType </text>
<text text-anchor="start" x="13" y="-235" font-family="arial" font-size="10.00"> &#45; runCounter : int </text>
<polygon fill="none" stroke="black" points="9,-183 9,-228 306,-228 306,-183 9,-183"/>
<text text-anchor="start" x="13" y="-216" font-family="arial" font-size="10.00"> + RoomTask(parent : Room, conf : FileConfiguration, taskNr : int) </text>
<text text-anchor="start" x="13" y="-203" font-family="arial" font-size="10.00"> + register() </text>
<text text-anchor="start" x="13" y="-190" font-family="arial" font-size="10.00"> + run() </text>
</a>
</g>
<g><a xlink:href="./RoomTask.html" xlink:title="&lt;TABLE&gt;">
</a>
</g>
</g>
<!-- c423 -->
<g id="node2" class="node"><title>c423</title>
<g id="a_node2"><a xlink:href="./PowerTask.html" xlink:title="&lt;TABLE&gt;">
</a>
</g>
<g id="a_node2_1"><a xlink:href="./PowerTask.html" xlink:title="dunGen.tasks.PowerTask" target="_parent">
<polygon fill="lemonChiffon" stroke="none" points="8,-4 8,-139 306,-139 306,-4 8,-4"/>
<polygon fill="none" stroke="black" points="8,-119.5 8,-138.5 306,-138.5 306,-119.5 8,-119.5"/>
<text text-anchor="start" x="129.5" y="-126.5" font-family="arial" font-size="10.00"> PowerTask </text>
<polygon fill="none" stroke="black" points="8,-74.5 8,-119.5 306,-119.5 306,-74.5 8,-74.5"/>
<text text-anchor="start" x="12" y="-107.5" font-family="arial" font-size="10.00"> &#45; convertedToGlobal : boolean </text>
<text text-anchor="start" x="12" y="-94.5" font-family="arial" font-size="10.00"> &#45; offTask : TaskWithCallback </text>
<text text-anchor="start" x="12" y="-81.5" font-family="arial" font-size="10.00"> &#45; onTime : double </text>
<polygon fill="none" stroke="black" points="8,-3.5 8,-74.5 306,-74.5 306,-3.5 8,-3.5"/>
<text text-anchor="start" x="12" y="-62.5" font-family="arial" font-size="10.00"> + PowerTask(parent : Room, conf : FileConfiguration, taskNr : int) </text>
<text text-anchor="start" x="12" y="-49.5" font-family="arial" font-size="10.00"> &#45; depower(v : Void) : Void </text>
<text text-anchor="start" x="12" y="-36.5" font-family="arial" font-size="10.00"> &#45; empower() </text>
<text text-anchor="start" x="12" y="-23.5" font-family="arial" font-size="10.00"> + register() </text>
<text text-anchor="start" x="12" y="-10.5" font-family="arial" font-size="10.00"> + run() </text>
</a>
</g>
<g><a xlink:href="./PowerTask.html" xlink:title="&lt;TABLE&gt;">
</a>
</g>
</g>
<!-- c421&#45;&gt;c423 -->
<g id="edge1" class="edge"><title>c421:p&#45;&gt;c423:p</title>
<path fill="none" stroke="black" d="M157,-172.474C157,-161.188 157,-149.873 157,-139.122"/>
<polygon fill="none" stroke="black" points="153.5,-172.812 157,-182.812 160.5,-172.812 153.5,-172.812"/>
</g>
</g>
</svg>
