<?xml version="1.0" encoding="UTF-8" standalone="no"?>
<!DOCTYPE svg PUBLIC "-//W3C//DTD SVG 1.1//EN"
 "http://www.w3.org/Graphics/SVG/1.1/DTD/svg11.dtd">
<!-- Generated by graphviz version 2.38.0 (20140413.2041)
 -->
<!-- Title: G Pages: 1 -->
<svg width="108pt" height="125pt"
 viewBox="0.00 0.00 108.00 125.00" xmlns="http://www.w3.org/2000/svg" xmlns:xlink="http://www.w3.org/1999/xlink">
<g id="graph0" class="graph" transform="scale(1 1) rotate(0) translate(4 121)">
<title>G</title>
<polygon fill="white" stroke="none" points="-4,4 -4,-121 104,-121 104,4 -4,4"/>
<!-- c486 -->
<g id="node1" class="node"><title>c486</title>
<g id="a_node1"><a xlink:href="./RoomTask.TaskType.html" xlink:title="&lt;TABLE&gt;">
</a>
</g>
<g id="a_node1_0"><a xlink:href="./RoomTask.TaskType.html" xlink:title="dunGen.tasks.RoomTask.TaskType" target="_parent">
<polygon fill="lemonChiffon" stroke="none" points="8,-4 8,-113 92,-113 92,-4 8,-4"/>
<polygon fill="none" stroke="black" points="8,-80.5 8,-112.5 92,-112.5 92,-80.5 8,-80.5"/>
<text text-anchor="start" x="15" y="-100.5" font-family="arial" font-size="10.00"> «enumeration» </text>
<text text-anchor="start" x="25.5" y="-87.5" font-family="arial" font-size="10.00"> TaskType </text>
<polygon fill="none" stroke="black" points="8,-61.5 8,-80.5 92,-80.5 92,-61.5 8,-61.5"/>
<text text-anchor="start" x="12" y="-68.5" font-family="arial" font-size="10.00"> &#160;</text>
<polygon fill="none" stroke="black" points="8,-3.5 8,-61.5 92,-61.5 92,-3.5 8,-3.5"/>
<text text-anchor="start" x="12" y="-49.5" font-family="arial" font-size="10.00"> BLOCKSPAWN </text>
<text text-anchor="start" x="12" y="-36.5" font-family="arial" font-size="10.00"> ENTITYSPAWN </text>
<text text-anchor="start" x="12" y="-23.5" font-family="arial" font-size="10.00"> POWER </text>
<text text-anchor="start" x="12" y="-10.5" font-family="arial" font-size="10.00"> MAZE </text>
</a>
</g>
<g><a xlink:href="./RoomTask.TaskType.html" xlink:title="&lt;TABLE&gt;">
</a>
</g>
</g>
</g>
</svg>
