<?xml version="1.0" encoding="UTF-8" standalone="no"?>
<!DOCTYPE svg PUBLIC "-//W3C//DTD SVG 1.1//EN"
 "http://www.w3.org/Graphics/SVG/1.1/DTD/svg11.dtd">
<!-- Generated by graphviz version 2.38.0 (20140413.2041)
 -->
<!-- Title: G Pages: 1 -->
<svg width="1372pt" height="652pt"
 viewBox="0.00 0.00 1371.50 652.00" xmlns="http://www.w3.org/2000/svg" xmlns:xlink="http://www.w3.org/1999/xlink">
<g id="graph0" class="graph" transform="scale(1 1) rotate(0) translate(4 648)">
<title>G</title>
<polygon fill="white" stroke="none" points="-4,4 -4,-648 1367.5,-648 1367.5,4 -4,4"/>
<!-- c463 -->
<g id="node1" class="node"><title>c463</title>
<g id="a_node1"><a xlink:href="./RoomTask.html" xlink:title="&lt;TABLE&gt;">
</a>
</g>
<g id="a_node1_0"><a xlink:href="./RoomTask.html" xlink:title="dunGen.tasks.RoomTask" target="_parent">
<polygon fill="lemonChiffon" stroke="none" points="511.5,-209 511.5,-383 808.5,-383 808.5,-209 511.5,-209"/>
<polygon fill="none" stroke="black" points="512,-364 512,-383 809,-383 809,-364 512,-364"/>
<text text-anchor="start" x="634" y="-371" font-family="arial" font-size="10.00"> RoomTask </text>
<polygon fill="none" stroke="black" points="512,-254 512,-364 809,-364 809,-254 512,-254"/>
<text text-anchor="start" x="516" y="-352" font-family="arial" font-size="10.00"> # delay : double </text>
<text text-anchor="start" x="516" y="-339" font-family="arial" font-size="10.00"> # parent : Room </text>
<text text-anchor="start" x="516" y="-326" font-family="arial" font-size="10.00"> # period : double </text>
<text text-anchor="start" x="516" y="-313" font-family="arial" font-size="10.00"> # executionCount : int </text>
<text text-anchor="start" x="516" y="-300" font-family="arial" font-size="10.00"> # targetRegion : CuboidRegion </text>
<text text-anchor="start" x="516" y="-287" font-family="arial" font-size="10.00"> # taskNr : int </text>
<text text-anchor="start" x="516" y="-274" font-family="arial" font-size="10.00"> # type : RoomTask.TaskType </text>
<text text-anchor="start" x="516" y="-261" font-family="arial" font-size="10.00"> &#45; runCounter : int </text>
<polygon fill="none" stroke="black" points="512,-209 512,-254 809,-254 809,-209 512,-209"/>
<text text-anchor="start" x="516" y="-242" font-family="arial" font-size="10.00"> + RoomTask(parent : Room, conf : FileConfiguration, taskNr : int) </text>
<text text-anchor="start" x="516" y="-229" font-family="arial" font-size="10.00"> + register() </text>
<text text-anchor="start" x="516" y="-216" font-family="arial" font-size="10.00"> + run() </text>
</a>
</g>
<g><a xlink:href="./RoomTask.html" xlink:title="&lt;TABLE&gt;">
</a>
</g>
</g>
<!-- c465 -->
<g id="node2" class="node"><title>c465</title>
<g id="a_node2"><a xlink:href="./PowerTask.html" xlink:title="&lt;TABLE&gt;">
</a>
</g>
<g id="a_node2_1"><a xlink:href="./PowerTask.html" xlink:title="dunGen.tasks.PowerTask" target="_parent">
<polygon fill="none" stroke="black" points="8,-132.5 8,-151.5 306,-151.5 306,-132.5 8,-132.5"/>
<text text-anchor="start" x="129.5" y="-139.5" font-family="arial" font-size="10.00"> PowerTask </text>
<polygon fill="none" stroke="black" points="8,-87.5 8,-132.5 306,-132.5 306,-87.5 8,-87.5"/>
<text text-anchor="start" x="12" y="-120.5" font-family="arial" font-size="10.00"> &#45; convertedToGlobal : boolean </text>
<text text-anchor="start" x="12" y="-107.5" font-family="arial" font-size="10.00"> &#45; offTask : TaskWithCallback </text>
<text text-anchor="start" x="12" y="-94.5" font-family="arial" font-size="10.00"> &#45; onTime : double </text>
<polygon fill="none" stroke="black" points="8,-16.5 8,-87.5 306,-87.5 306,-16.5 8,-16.5"/>
<text text-anchor="start" x="12" y="-75.5" font-family="arial" font-size="10.00"> + PowerTask(parent : Room, conf : FileConfiguration, taskNr : int) </text>
<text text-anchor="start" x="12" y="-62.5" font-family="arial" font-size="10.00"> &#45; depower(v : Void) : Void </text>
<text text-anchor="start" x="12" y="-49.5" font-family="arial" font-size="10.00"> &#45; empower() </text>
<text text-anchor="start" x="12" y="-36.5" font-family="arial" font-size="10.00"> + register() </text>
<text text-anchor="start" x="12" y="-23.5" font-family="arial" font-size="10.00"> + run() </text>
</a>
</g>
<g><a xlink:href="./PowerTask.html" xlink:title="&lt;TABLE&gt;">
</a>
</g>
</g>
<!-- c463&#45;&gt;c465 -->
<g id="edge2" class="edge"><title>c463:p&#45;&gt;c465:p</title>
<path fill="none" stroke="black" d="M501.956,-239.921C445.008,-219.025 380.608,-194.17 323,-169 310.88,-163.704 298.384,-157.963 285.944,-152.055"/>
<polygon fill="none" stroke="black" points="500.801,-243.225 511.395,-243.373 503.205,-236.651 500.801,-243.225"/>
</g>
<!-- c466 -->
<g id="node3" class="node"><title>c466</title>
<g id="a_node3"><a xlink:href="./MazeTask.html" xlink:title="&lt;TABLE&gt;">
</a>
</g>
<g id="a_node3_2"><a xlink:href="./MazeTask.html" xlink:title="dunGen.tasks.MazeTask" target="_parent">
<polygon fill="none" stroke="black" points="341,-145.5 341,-164.5 636,-164.5 636,-145.5 341,-145.5"/>
<text text-anchor="start" x="462.5" y="-152.5" font-family="arial" font-size="10.00"> MazeTask </text>
<polygon fill="none" stroke="black" points="341,-35.5 341,-145.5 636,-145.5 636,-35.5 341,-35.5"/>
<text text-anchor="start" x="345" y="-133.5" font-family="arial" font-size="10.00"> &#45; carveBestExit : int </text>
<text text-anchor="start" x="345" y="-120.5" font-family="arial" font-size="10.00"> &#45; entryCell : int </text>
<text text-anchor="start" x="345" y="-107.5" font-family="arial" font-size="10.00"> &#45; distToEntry : int[][] </text>
<text text-anchor="start" x="345" y="-94.5" font-family="arial" font-size="10.00"> &#45; mazeWalls : MazeWall[][] </text>
<text text-anchor="start" x="345" y="-81.5" font-family="arial" font-size="10.00"> &#45; mazeMaterial : Material </text>
<text text-anchor="start" x="345" y="-68.5" font-family="arial" font-size="10.00"> &#45; wayWidth : int </text>
<text text-anchor="start" x="345" y="-55.5" font-family="arial" font-size="10.00"> &#45; wallWidth : int </text>
<text text-anchor="start" x="345" y="-42.5" font-family="arial" font-size="10.00"> &#45; wallHeight : int </text>
<polygon fill="none" stroke="black" points="341,-3.5 341,-35.5 636,-35.5 636,-3.5 341,-3.5"/>
<text text-anchor="start" x="345" y="-23.5" font-family="arial" font-size="10.00"> + MazeTask(parent : Room, conf : FileConfiguration, taskNr : int) </text>
<text text-anchor="start" x="345" y="-10.5" font-family="arial" font-size="10.00"> + run() </text>
</a>
</g>
<g><a xlink:href="./MazeTask.html" xlink:title="&lt;TABLE&gt;">
</a>
</g>
</g>
<!-- c463&#45;&gt;c466 -->
<g id="edge3" class="edge"><title>c463:p&#45;&gt;c466:p</title>
<path fill="none" stroke="black" d="M582.87,-201.054C573.048,-189.09 563.069,-176.936 553.455,-165.226"/>
<polygon fill="none" stroke="black" points="580.246,-203.373 589.296,-208.881 585.656,-198.932 580.246,-203.373"/>
</g>
<!-- c467 -->
<g id="node4" class="node"><title>c467</title>
<g id="a_node4"><a xlink:href="./EntitySpawnTask.html" xlink:title="&lt;TABLE&gt;">
</a>
</g>
<g id="a_node4_3"><a xlink:href="./EntitySpawnTask.html" xlink:title="dunGen.tasks.EntitySpawnTask" target="_parent">
<polygon fill="none" stroke="black" points="670,-113.5 670,-132.5 996,-132.5 996,-113.5 670,-113.5"/>
<text text-anchor="start" x="792" y="-120.5" font-family="arial" font-size="10.00"> EntitySpawnTask </text>
<polygon fill="none" stroke="black" points="670,-68.5 670,-113.5 996,-113.5 996,-68.5 670,-68.5"/>
<text text-anchor="start" x="674" y="-101.5" font-family="arial" font-size="10.00"> &#45; MAXSPAWNPOSITIONTRIES : int </text>
<text text-anchor="start" x="674" y="-88.5" font-family="arial" font-size="10.00"> &#45; convertedToGlobal : boolean </text>
<text text-anchor="start" x="674" y="-75.5" font-family="arial" font-size="10.00"> &#45; grp : EntitySpawnTask.EntityGroup </text>
<polygon fill="none" stroke="black" points="670,-36.5 670,-68.5 996,-68.5 996,-36.5 670,-36.5"/>
<text text-anchor="start" x="674" y="-56.5" font-family="arial" font-size="10.00"> + EntitySpawnTask(parent : Room, conf : FileConfiguration, taskNr : int) </text>
<text text-anchor="start" x="674" y="-43.5" font-family="arial" font-size="10.00"> + run() </text>
</a>
</g>
<g><a xlink:href="./EntitySpawnTask.html" xlink:title="&lt;TABLE&gt;">
</a>
</g>
</g>
<!-- c463&#45;&gt;c467 -->
<g id="edge4" class="edge"><title>c463:p&#45;&gt;c467:p</title>
<path fill="none" stroke="black" d="M737.709,-200.896C757.239,-177.246 777.372,-152.864 794.072,-132.641"/>
<polygon fill="none" stroke="black" points="734.783,-198.942 731.115,-208.881 740.181,-203.399 734.783,-198.942"/>
</g>
<!-- c469 -->
<g id="node5" class="node"><title>c469</title>
<g id="a_node5"><a xlink:href="./BlockSpawnTask.html" xlink:title="&lt;TABLE&gt;">
</a>
</g>
<g id="a_node5_4"><a xlink:href="./BlockSpawnTask.html" xlink:title="dunGen.tasks.BlockSpawnTask" target="_parent">
<polygon fill="none" stroke="black" points="1031,-106.5 1031,-125.5 1356,-125.5 1356,-106.5 1031,-106.5"/>
<text text-anchor="start" x="1152.5" y="-113.5" font-family="arial" font-size="10.00"> BlockSpawnTask </text>
<polygon fill="none" stroke="black" points="1031,-74.5 1031,-106.5 1356,-106.5 1356,-74.5 1031,-74.5"/>
<text text-anchor="start" x="1035" y="-94.5" font-family="arial" font-size="10.00"> &#45; blockMaterial : Material </text>
<text text-anchor="start" x="1035" y="-81.5" font-family="arial" font-size="10.00"> &#45; incrementVec : Vector </text>
<polygon fill="none" stroke="black" points="1031,-42.5 1031,-74.5 1356,-74.5 1356,-42.5 1031,-42.5"/>
<text text-anchor="start" x="1035" y="-62.5" font-family="arial" font-size="10.00"> + BlockSpawnTask(parent : Room, conf : FileConfiguration, taskNr : int) </text>
<text text-anchor="start" x="1035" y="-49.5" font-family="arial" font-size="10.00"> + run() </text>
</a>
</g>
<g><a xlink:href="./BlockSpawnTask.html" xlink:title="&lt;TABLE&gt;">
</a>
</g>
</g>
<!-- c463&#45;&gt;c469 -->
<g id="edge5" class="edge"><title>c463:p&#45;&gt;c469:p</title>
<path fill="none" stroke="black" d="M818.593,-241.862C879.812,-220.448 950.122,-194.743 1013,-169 1044.88,-155.948 1079.32,-140.352 1109.45,-126.19"/>
<polygon fill="none" stroke="black" points="817.137,-238.663 808.848,-245.262 819.443,-245.273 817.137,-238.663"/>
</g>
<!-- c470 -->
<g id="node6" class="node"><title>c470</title>
<g id="a_node6"><a xlink:href="http://docs.oracle.com/javase/7/docs/api/org/bukkit/scheduler/BukkitRunnable.html" xlink:title="&lt;TABLE&gt;">
</a>
</g>
<g id="a_node6_5"><a xlink:href="http://docs.oracle.com/javase/7/docs/api/org/bukkit/scheduler/BukkitRunnable.html" xlink:title="org.bukkit.scheduler.BukkitRunnable" target="_parent">
<polygon fill="none" stroke="black" points="473,-620.5 473,-639.5 847,-639.5 847,-620.5 473,-620.5"/>
<text text-anchor="start" x="621.5" y="-627.5" font-family="arial italic" font-size="10.00"> BukkitRunnable </text>
<polygon fill="none" stroke="black" points="473,-601.5 473,-620.5 847,-620.5 847,-601.5 473,-601.5"/>
<text text-anchor="start" x="477" y="-608.5" font-family="arial" font-size="10.00"> &#45; task : BukkitTask </text>
<polygon fill="none" stroke="black" points="473,-426.5 473,-601.5 847,-601.5 847,-426.5 473,-426.5"/>
<text text-anchor="start" x="477" y="-589.5" font-family="arial" font-size="10.00"> + BukkitRunnable() </text>
<text text-anchor="start" x="477" y="-576.5" font-family="arial" font-size="10.00"> + isCancelled() : boolean </text>
<text text-anchor="start" x="477" y="-563.5" font-family="arial" font-size="10.00"> + cancel() </text>
<text text-anchor="start" x="477" y="-550.5" font-family="arial" font-size="10.00"> + runTask(arg0 : Plugin) : BukkitTask </text>
<text text-anchor="start" x="477" y="-537.5" font-family="arial" font-size="10.00"> + runTaskAsynchronously(arg0 : Plugin) : BukkitTask </text>
<text text-anchor="start" x="477" y="-524.5" font-family="arial" font-size="10.00"> + runTaskLater(arg0 : Plugin, arg1 : long) : BukkitTask </text>
<text text-anchor="start" x="477" y="-511.5" font-family="arial" font-size="10.00"> + runTaskLaterAsynchronously(arg0 : Plugin, arg1 : long) : BukkitTask </text>
<text text-anchor="start" x="477" y="-498.5" font-family="arial" font-size="10.00"> + runTaskTimer(arg0 : Plugin, arg1 : long, arg2 : long) : BukkitTask </text>
<text text-anchor="start" x="477" y="-485.5" font-family="arial" font-size="10.00"> + runTaskTimerAsynchronously(arg0 : Plugin, arg1 : long, arg2 : long) : BukkitTask </text>
<text text-anchor="start" x="477" y="-472.5" font-family="arial" font-size="10.00"> + getTaskId() : int </text>
<text text-anchor="start" x="477" y="-459.5" font-family="arial" font-size="10.00"> &#45; checkScheduled() </text>
<text text-anchor="start" x="477" y="-446.5" font-family="arial" font-size="10.00"> &#45; checkNotYetScheduled() </text>
<text text-anchor="start" x="477" y="-433.5" font-family="arial" font-size="10.00"> &#45; setupTask(arg0 : BukkitTask) : BukkitTask </text>
</a>
</g>
<g><a xlink:href="http://docs.oracle.com/javase/7/docs/api/org/bukkit/scheduler/BukkitRunnable.html" xlink:title="&lt;TABLE&gt;">
</a>
</g>
</g>
<!-- c470&#45;&gt;c463 -->
<g id="edge1" class="edge"><title>c470:p&#45;&gt;c463:p</title>
<path fill="none" stroke="black" d="M660,-416.545C660,-405.353 660,-394.14 660,-383.309"/>
<polygon fill="none" stroke="black" points="656.5,-416.805 660,-426.805 663.5,-416.805 656.5,-416.805"/>
</g>
</g>
</svg>
