<?xml version="1.0" encoding="UTF-8" standalone="no"?>
<!DOCTYPE svg PUBLIC "-//W3C//DTD SVG 1.1//EN"
 "http://www.w3.org/Graphics/SVG/1.1/DTD/svg11.dtd">
<!-- Generated by graphviz version 2.38.0 (20140413.2041)
 -->
<!-- Title: G Pages: 1 -->
<svg width="398pt" height="343pt"
 viewBox="0.00 0.00 398.00 343.00" xmlns="http://www.w3.org/2000/svg" xmlns:xlink="http://www.w3.org/1999/xlink">
<g id="graph0" class="graph" transform="scale(1 1) rotate(0) translate(4 339)">
<title>G</title>
<polygon fill="white" stroke="none" points="-4,4 -4,-339 394,-339 394,4 -4,4"/>
<!-- c505 -->
<g id="node1" class="node"><title>c505</title>
<g id="a_node1"><a xlink:href="./TaskWithCallback.html" xlink:title="&lt;TABLE&gt;">
</a>
</g>
<g id="a_node1_0"><a xlink:href="./TaskWithCallback.html" xlink:title="dunGen.tasks.TaskWithCallback" target="_parent">
<polygon fill="lemonChiffon" stroke="none" points="71,-4 71,-74 319,-74 319,-4 71,-4"/>
<polygon fill="none" stroke="black" points="71,-55 71,-74 319,-74 319,-55 71,-55"/>
<text text-anchor="start" x="152.5" y="-62" font-family="arial" font-size="10.00"> TaskWithCallback </text>
<polygon fill="none" stroke="black" points="71,-36 71,-55 319,-55 319,-36 71,-36"/>
<text text-anchor="start" x="75" y="-43" font-family="arial" font-size="10.00"> ~ callback : Function&lt;Void, Void&gt; </text>
<polygon fill="none" stroke="black" points="71,-4 71,-36 319,-36 319,-4 71,-4"/>
<text text-anchor="start" x="75" y="-24" font-family="arial" font-size="10.00"> + TaskWithCallback(callback : Function&lt;Void, Void&gt;) </text>
<text text-anchor="start" x="75" y="-11" font-family="arial" font-size="10.00"> + run() </text>
</a>
</g>
<g><a xlink:href="./TaskWithCallback.html" xlink:title="&lt;TABLE&gt;">
</a>
</g>
</g>
<!-- c513 -->
<g id="node2" class="node"><title>c513</title>
<g id="a_node2"><a xlink:href="http://docs.oracle.com/javase/7/docs/api/org/bukkit/scheduler/BukkitRunnable.html" xlink:title="&lt;TABLE&gt;">
</a>
</g>
<g id="a_node2_1"><a xlink:href="http://docs.oracle.com/javase/7/docs/api/org/bukkit/scheduler/BukkitRunnable.html" xlink:title="org.bukkit.scheduler.BukkitRunnable" target="_parent">
<polygon fill="none" stroke="black" points="8,-311.5 8,-330.5 382,-330.5 382,-311.5 8,-311.5"/>
<text text-anchor="start" x="156.5" y="-318.5" font-family="arial italic" font-size="10.00"> BukkitRunnable </text>
<polygon fill="none" stroke="black" points="8,-292.5 8,-311.5 382,-311.5 382,-292.5 8,-292.5"/>
<text text-anchor="start" x="12" y="-299.5" font-family="arial" font-size="10.00"> &#45; task : BukkitTask </text>
<polygon fill="none" stroke="black" points="8,-117.5 8,-292.5 382,-292.5 382,-117.5 8,-117.5"/>
<text text-anchor="start" x="12" y="-280.5" font-family="arial" font-size="10.00"> + BukkitRunnable() </text>
<text text-anchor="start" x="12" y="-267.5" font-family="arial" font-size="10.00"> + isCancelled() : boolean </text>
<text text-anchor="start" x="12" y="-254.5" font-family="arial" font-size="10.00"> + cancel() </text>
<text text-anchor="start" x="12" y="-241.5" font-family="arial" font-size="10.00"> + runTask(arg0 : Plugin) : BukkitTask </text>
<text text-anchor="start" x="12" y="-228.5" font-family="arial" font-size="10.00"> + runTaskAsynchronously(arg0 : Plugin) : BukkitTask </text>
<text text-anchor="start" x="12" y="-215.5" font-family="arial" font-size="10.00"> + runTaskLater(arg0 : Plugin, arg1 : long) : BukkitTask </text>
<text text-anchor="start" x="12" y="-202.5" font-family="arial" font-size="10.00"> + runTaskLaterAsynchronously(arg0 : Plugin, arg1 : long) : BukkitTask </text>
<text text-anchor="start" x="12" y="-189.5" font-family="arial" font-size="10.00"> + runTaskTimer(arg0 : Plugin, arg1 : long, arg2 : long) : BukkitTask </text>
<text text-anchor="start" x="12" y="-176.5" font-family="arial" font-size="10.00"> + runTaskTimerAsynchronously(arg0 : Plugin, arg1 : long, arg2 : long) : BukkitTask </text>
<text text-anchor="start" x="12" y="-163.5" font-family="arial" font-size="10.00"> + getTaskId() : int </text>
<text text-anchor="start" x="12" y="-150.5" font-family="arial" font-size="10.00"> &#45; checkScheduled() </text>
<text text-anchor="start" x="12" y="-137.5" font-family="arial" font-size="10.00"> &#45; checkNotYetScheduled() </text>
<text text-anchor="start" x="12" y="-124.5" font-family="arial" font-size="10.00"> &#45; setupTask(arg0 : BukkitTask) : BukkitTask </text>
</a>
</g>
<g><a xlink:href="http://docs.oracle.com/javase/7/docs/api/org/bukkit/scheduler/BukkitRunnable.html" xlink:title="&lt;TABLE&gt;">
</a>
</g>
</g>
<!-- c513&#45;&gt;c505 -->
<g id="edge1" class="edge"><title>c513:p&#45;&gt;c505:p</title>
<path fill="none" stroke="black" d="M195,-107.569C195,-95.5097 195,-84.0502 195,-74.1084"/>
<polygon fill="none" stroke="black" points="191.5,-107.82 195,-117.821 198.5,-107.821 191.5,-107.82"/>
</g>
</g>
</svg>
