<?xml version="1.0" encoding="UTF-8" standalone="no"?>
<!DOCTYPE svg PUBLIC "-//W3C//DTD SVG 1.1//EN"
 "http://www.w3.org/Graphics/SVG/1.1/DTD/svg11.dtd">
<!-- Generated by graphviz version 2.38.0 (20140413.2041)
 -->
<!-- Title: G Pages: 1 -->
<svg width="423pt" height="343pt"
 viewBox="0.00 0.00 423.00 343.00" xmlns="http://www.w3.org/2000/svg" xmlns:xlink="http://www.w3.org/1999/xlink">
<g id="graph0" class="graph" transform="scale(1 1) rotate(0) translate(4 339)">
<title>G</title>
<polygon fill="white" stroke="none" points="-4,4 -4,-339 419,-339 419,4 -4,4"/>
<!-- c45 -->
<g id="node1" class="node"><title>c45</title>
<g id="a_node1"><a xlink:href="./Room.html" xlink:title="&lt;TABLE&gt;">
</a>
</g>
<g id="a_node1_0"><a xlink:href="./Room.html" xlink:title="dunGen.Room" target="_parent">
<polygon fill="none" stroke="black" points="21.5,-311.5 21.5,-330.5 394.5,-330.5 394.5,-311.5 21.5,-311.5"/>
<text text-anchor="start" x="192" y="-318.5" font-family="arial italic" font-size="10.00"> Room </text>
<polygon fill="none" stroke="black" points="21.5,-266.5 21.5,-311.5 394.5,-311.5 394.5,-266.5 21.5,-266.5"/>
<text text-anchor="start" x="25.5" y="-299.5" font-family="arial" font-size="10.00"> # checkTask : TaskWithCallback </text>
<text text-anchor="start" x="25.5" y="-286.5" font-family="arial" font-size="10.00"> &#45; tasks : List&lt;RoomTask&gt; </text>
<text text-anchor="start" x="25.5" y="-273.5" font-family="arial" font-size="10.00"> # trackedEnemies : List&lt;Entity&gt; </text>
<polygon fill="none" stroke="black" points="21.5,-143.5 21.5,-266.5 394.5,-266.5 394.5,-143.5 21.5,-143.5"/>
<text text-anchor="start" x="25.5" y="-254.5" font-family="arial" font-size="10.00"> + Room(parent : DunGen, name : String, targetL : Vector, towardsD : Helper.Direc) </text>
<text text-anchor="start" x="25.5" y="-241.5" font-family="arial" font-size="10.00"> + delete() </text>
<text text-anchor="start" x="25.5" y="-228.5" font-family="arial" font-size="10.00"> + prePlacementActions() </text>
<text text-anchor="start" x="25.5" y="-215.5" font-family="arial" font-size="10.00"> + addTrackedEntity(e : Entity) </text>
<text text-anchor="start" x="25.5" y="-202.5" font-family="arial italic" font-size="10.00"> + checkRoomDone(v : Void) : Void </text>
<text text-anchor="start" x="25.5" y="-189.5" font-family="arial" font-size="10.00"> + loadConfig() </text>
<text text-anchor="start" x="25.5" y="-176.5" font-family="arial" font-size="10.00"> + postPlacementActions() </text>
<text text-anchor="start" x="25.5" y="-163.5" font-family="arial" font-size="10.00"> + register() </text>
<text text-anchor="start" x="25.5" y="-150.5" font-family="arial" font-size="10.00"> + unregister() </text>
</a>
</g>
<g><a xlink:href="./Room.html" xlink:title="&lt;TABLE&gt;">
</a>
</g>
</g>
<!-- c69 -->
<g id="node2" class="node"><title>c69</title>
<g id="a_node2"><a xlink:href="./BattleRoom.html" xlink:title="&lt;TABLE&gt;">
</a>
</g>
<g id="a_node2_1"><a xlink:href="./BattleRoom.html" xlink:title="dunGen.BattleRoom" target="_parent">
<polygon fill="lemonChiffon" stroke="none" points="8,-4 8,-100 407,-100 407,-4 8,-4"/>
<polygon fill="none" stroke="black" points="8.5,-81 8.5,-100 407.5,-100 407.5,-81 8.5,-81"/>
<text text-anchor="start" x="179" y="-88" font-family="arial" font-size="10.00"> BattleRoom </text>
<polygon fill="none" stroke="black" points="8.5,-62 8.5,-81 407.5,-81 407.5,-62 8.5,-62"/>
<text text-anchor="start" x="12.5" y="-69" font-family="arial" font-size="10.00"> &#160;</text>
<polygon fill="none" stroke="black" points="8.5,-4 8.5,-62 407.5,-62 407.5,-4 8.5,-4"/>
<text text-anchor="start" x="12.5" y="-50" font-family="arial" font-size="10.00"> + BattleRoom(parent : DunGen, name : String, targetL : Vector, towardsD : Helper.Direc) </text>
<text text-anchor="start" x="12.5" y="-37" font-family="arial" font-size="10.00"> + checkRoomDone(v : Void) : Void </text>
<text text-anchor="start" x="12.5" y="-24" font-family="arial" font-size="10.00"> + loadConfig() </text>
<text text-anchor="start" x="12.5" y="-11" font-family="arial" font-size="10.00"> + prePlacementActions() </text>
</a>
</g>
<g><a xlink:href="./BattleRoom.html" xlink:title="&lt;TABLE&gt;">
</a>
</g>
</g>
<!-- c45&#45;&gt;c69 -->
<g id="edge1" class="edge"><title>c45:p&#45;&gt;c69:p</title>
<path fill="none" stroke="black" d="M207.5,-133.675C207.5,-122.04 207.5,-110.645 207.5,-100.255"/>
<polygon fill="none" stroke="black" points="204,-133.944 207.5,-143.944 211,-133.944 204,-133.944"/>
</g>
</g>
</svg>
