<?xml version="1.0" encoding="UTF-8" standalone="no"?>
<!DOCTYPE svg PUBLIC "-//W3C//DTD SVG 1.1//EN"
 "http://www.w3.org/Graphics/SVG/1.1/DTD/svg11.dtd">
<!-- Generated by graphviz version 2.38.0 (20140413.2041)
 -->
<!-- Title: G Pages: 1 -->
<svg width="149pt" height="125pt"
 viewBox="0.00 0.00 149.00 125.00" xmlns="http://www.w3.org/2000/svg" xmlns:xlink="http://www.w3.org/1999/xlink">
<g id="graph0" class="graph" transform="scale(1 1) rotate(0) translate(4 121)">
<title>G</title>
<polygon fill="white" stroke="none" points="-4,4 -4,-121 145,-121 145,4 -4,4"/>
<!-- c144 -->
<g id="node1" class="node"><title>c144</title>
<g id="a_node1"><a xlink:href="./DunGen.State.html" xlink:title="&lt;TABLE&gt;">
</a>
</g>
<g id="a_node1_0"><a xlink:href="./DunGen.State.html" xlink:title="dunGen.DunGen.State" target="_parent">
<polygon fill="lemonChiffon" stroke="none" points="8,-4 8,-113 133,-113 133,-4 8,-4"/>
<polygon fill="none" stroke="black" points="8.5,-80.5 8.5,-112.5 133.5,-112.5 133.5,-80.5 8.5,-80.5"/>
<text text-anchor="start" x="36" y="-100.5" font-family="arial" font-size="10.00"> «enumeration» </text>
<text text-anchor="start" x="56" y="-87.5" font-family="arial" font-size="10.00"> State </text>
<polygon fill="none" stroke="black" points="8.5,-61.5 8.5,-80.5 133.5,-80.5 133.5,-61.5 8.5,-61.5"/>
<text text-anchor="start" x="12.5" y="-68.5" font-family="arial" font-size="10.00"> + statusMessage : String </text>
<polygon fill="none" stroke="black" points="8.5,-3.5 8.5,-61.5 133.5,-61.5 133.5,-3.5 8.5,-3.5"/>
<text text-anchor="start" x="12.5" y="-49.5" font-family="arial" font-size="10.00"> NOT_STARTED </text>
<text text-anchor="start" x="12.5" y="-36.5" font-family="arial" font-size="10.00"> STARTUP </text>
<text text-anchor="start" x="12.5" y="-23.5" font-family="arial" font-size="10.00"> RUNNING </text>
<text text-anchor="start" x="12.5" y="-10.5" font-family="arial" font-size="10.00"> ERROR </text>
</a>
</g>
<g><a xlink:href="./DunGen.State.html" xlink:title="&lt;TABLE&gt;">
</a>
</g>
</g>
</g>
</svg>
