<?xml version="1.0" encoding="UTF-8" standalone="no"?>
<!DOCTYPE svg PUBLIC "-//W3C//DTD SVG 1.1//EN"
 "http://www.w3.org/Graphics/SVG/1.1/DTD/svg11.dtd">
<!-- Generated by graphviz version 2.38.0 (20140413.2041)
 -->
<!-- Title: G Pages: 1 -->
<svg width="427pt" height="343pt"
 viewBox="0.00 0.00 427.00 343.00" xmlns="http://www.w3.org/2000/svg" xmlns:xlink="http://www.w3.org/1999/xlink">
<g id="graph0" class="graph" transform="scale(1 1) rotate(0) translate(4 339)">
<title>G</title>
<polygon fill="white" stroke="none" points="-4,4 -4,-339 423,-339 423,4 -4,4"/>
<!-- c198 -->
<g id="node1" class="node"><title>c198</title>
<g id="a_node1"><a xlink:href="./Passageway.html" xlink:title="&lt;TABLE&gt;">
</a>
</g>
<g id="a_node1_0"><a xlink:href="./Passageway.html" xlink:title="dunGen.Passageway" target="_parent">
<polygon fill="none" stroke="black" points="8.5,-312 8.5,-331 411.5,-331 411.5,-312 8.5,-312"/>
<text text-anchor="start" x="179" y="-319" font-family="arial" font-size="10.00"> Passageway </text>
<polygon fill="none" stroke="black" points="8.5,-267 8.5,-312 411.5,-312 411.5,-267 8.5,-267"/>
<text text-anchor="start" x="12.5" y="-300" font-family="arial" font-size="10.00"> &#45; entryType : Passageway.DoorType </text>
<text text-anchor="start" x="12.5" y="-287" font-family="arial" font-size="10.00"> &#45; exitType : Passageway.DoorType </text>
<text text-anchor="start" x="12.5" y="-274" font-family="arial" font-size="10.00"> + respawnLoc : Vector </text>
<polygon fill="none" stroke="black" points="8.5,-131 8.5,-267 411.5,-267 411.5,-131 8.5,-131"/>
<text text-anchor="start" x="12.5" y="-255" font-family="arial" font-size="10.00"> + Passageway(parent : DunGen, name : String, targetL : Vector, towardsD : Helper.Direc) </text>
<text text-anchor="start" x="12.5" y="-242" font-family="arial" font-size="10.00"> &#45; genWall(relLowerLeft : Vector, height : int, width : int, material : Material) </text>
<text text-anchor="start" x="12.5" y="-229" font-family="arial" font-size="10.00"> + loadConfig() </text>
<text text-anchor="start" x="12.5" y="-216" font-family="arial" font-size="10.00"> + onNextRoomButtonPress(event : PlayerInteractEvent) </text>
<text text-anchor="start" x="12.5" y="-203" font-family="arial" font-size="10.00"> + postPlacementActions() </text>
<text text-anchor="start" x="12.5" y="-190" font-family="arial" font-size="10.00"> + prePlacementActions() </text>
<text text-anchor="start" x="12.5" y="-177" font-family="arial" font-size="10.00"> + register() </text>
<text text-anchor="start" x="12.5" y="-164" font-family="arial" font-size="10.00"> + toggleEntry(open : boolean) </text>
<text text-anchor="start" x="12.5" y="-151" font-family="arial" font-size="10.00"> + toggleExit(open : boolean) </text>
<text text-anchor="start" x="12.5" y="-138" font-family="arial" font-size="10.00"> + unregister() </text>
</a>
</g>
<g><a xlink:href="./Passageway.html" xlink:title="&lt;TABLE&gt;">
</a>
</g>
</g>
<!-- c205 -->
<g id="node2" class="node"><title>c205</title>
<g id="a_node2"><a xlink:href="./Entry.html" xlink:title="&lt;TABLE&gt;">
</a>
</g>
<g id="a_node2_1"><a xlink:href="./Entry.html" xlink:title="dunGen.Entry" target="_parent">
<polygon fill="lemonChiffon" stroke="none" points="24,-4 24,-87 395,-87 395,-4 24,-4"/>
<polygon fill="none" stroke="black" points="24.5,-67.5 24.5,-86.5 395.5,-86.5 395.5,-67.5 24.5,-67.5"/>
<text text-anchor="start" x="195" y="-74.5" font-family="arial" font-size="10.00"> Entry </text>
<polygon fill="none" stroke="black" points="24.5,-48.5 24.5,-67.5 395.5,-67.5 395.5,-48.5 24.5,-48.5"/>
<text text-anchor="start" x="28.5" y="-55.5" font-family="arial" font-size="10.00"> &#160;</text>
<polygon fill="none" stroke="black" points="24.5,-3.5 24.5,-48.5 395.5,-48.5 395.5,-3.5 24.5,-3.5"/>
<text text-anchor="start" x="28.5" y="-36.5" font-family="arial" font-size="10.00"> + Entry(parent : DunGen, name : String, targetL : Vector, towardsD : Helper.Direc) </text>
<text text-anchor="start" x="28.5" y="-23.5" font-family="arial" font-size="10.00"> + prePlacementActions() </text>
<text text-anchor="start" x="28.5" y="-10.5" font-family="arial" font-size="10.00"> + loadConfig() </text>
</a>
</g>
<g><a xlink:href="./Entry.html" xlink:title="&lt;TABLE&gt;">
</a>
</g>
</g>
<!-- c198&#45;&gt;c205 -->
<g id="edge1" class="edge"><title>c198:p&#45;&gt;c205:p</title>
<path fill="none" stroke="black" d="M209.5,-120.948C209.5,-109.073 209.5,-97.5985 209.5,-87.3608"/>
<polygon fill="none" stroke="black" points="206,-120.999 209.5,-130.999 213,-120.999 206,-120.999"/>
</g>
</g>
</svg>
