<?xml version="1.0" encoding="UTF-8" standalone="no"?>
<!DOCTYPE svg PUBLIC "-//W3C//DTD SVG 1.1//EN"
 "http://www.w3.org/Graphics/SVG/1.1/DTD/svg11.dtd">
<!-- Generated by graphviz version 2.38.0 (20140413.2041)
 -->
<!-- Title: G Pages: 1 -->
<svg width="337pt" height="151pt"
 viewBox="0.00 0.00 337.00 151.00" xmlns="http://www.w3.org/2000/svg" xmlns:xlink="http://www.w3.org/1999/xlink">
<g id="graph0" class="graph" transform="scale(1 1) rotate(0) translate(4 147)">
<title>G</title>
<polygon fill="white" stroke="none" points="-4,4 -4,-147 333,-147 333,4 -4,4"/>
<!-- c224 -->
<g id="node1" class="node"><title>c224</title>
<g id="a_node1"><a xlink:href="./Helper.html" xlink:title="&lt;TABLE&gt;">
</a>
</g>
<g id="a_node1_0"><a xlink:href="./Helper.html" xlink:title="dunGen.Helper" target="_parent">
<polygon fill="lemonChiffon" stroke="none" points="8,-4 8,-139 321,-139 321,-4 8,-4"/>
<polygon fill="none" stroke="black" points="8.5,-119.5 8.5,-138.5 321.5,-138.5 321.5,-119.5 8.5,-119.5"/>
<text text-anchor="start" x="148" y="-126.5" font-family="arial" font-size="10.00"> Helper </text>
<polygon fill="none" stroke="black" points="8.5,-100.5 8.5,-119.5 321.5,-119.5 321.5,-100.5 8.5,-100.5"/>
<text text-anchor="start" x="12.5" y="-107.5" font-family="arial" font-size="10.00"> &#160;</text>
<polygon fill="none" stroke="black" points="8.5,-3.5 8.5,-100.5 321.5,-100.5 321.5,-3.5 8.5,-3.5"/>
<text text-anchor="start" x="12.5" y="-88.5" font-family="arial" font-size="10.00"> + Helper() </text>
<text text-anchor="start" x="12.5" y="-75.5" font-family="arial" font-size="10.00"> + cosd(deg : int) : double </text>
<text text-anchor="start" x="12.5" y="-62.5" font-family="arial" font-size="10.00"> + fillVolume(w : World, v1 : Vector, v2 : Vector, m : Material) </text>
<text text-anchor="start" x="12.5" y="-49.5" font-family="arial" font-size="10.00"> + getPlayerDirec(player : Player) : Helper.Direc </text>
<text text-anchor="start" x="12.5" y="-36.5" font-family="arial" font-size="10.00"> + getRandVector(r : CuboidRegion) : Vector </text>
<text text-anchor="start" x="12.5" y="-23.5" font-family="arial" font-size="10.00"> + rotateBoolMatrixClockw(mat : boolean[][], degree : int) : boolean[][] </text>
<text text-anchor="start" x="12.5" y="-10.5" font-family="arial" font-size="10.00"> + sind(deg : int) : double </text>
</a>
</g>
<g><a xlink:href="./Helper.html" xlink:title="&lt;TABLE&gt;">
</a>
</g>
</g>
</g>
</svg>
