<?xml version="1.0" encoding="UTF-8" standalone="no"?>
<!DOCTYPE svg PUBLIC "-//W3C//DTD SVG 1.1//EN"
 "http://www.w3.org/Graphics/SVG/1.1/DTD/svg11.dtd">
<!-- Generated by graphviz version 2.38.0 (20140413.2041)
 -->
<!-- Title: G Pages: 1 -->
<svg width="177pt" height="164pt"
 viewBox="0.00 0.00 177.00 164.00" xmlns="http://www.w3.org/2000/svg" xmlns:xlink="http://www.w3.org/1999/xlink">
<g id="graph0" class="graph" transform="scale(1 1) rotate(0) translate(4 160)">
<title>G</title>
<polygon fill="white" stroke="none" points="-4,4 -4,-160 173,-160 173,4 -4,4"/>
<!-- c307 -->
<g id="node1" class="node"><title>c307</title>
<g id="a_node1"><a xlink:href="./Module.Connector.html" xlink:title="&lt;TABLE&gt;">
</a>
</g>
<g id="a_node1_0"><a xlink:href="./Module.Connector.html" xlink:title="dunGen.Module.Connector" target="_parent">
<polygon fill="lemonChiffon" stroke="none" points="8,-4 8,-152 161,-152 161,-4 8,-4"/>
<polygon fill="none" stroke="black" points="8.5,-133 8.5,-152 161.5,-152 161.5,-133 8.5,-133"/>
<text text-anchor="start" x="59.5" y="-140" font-family="arial" font-size="10.00"> Connector </text>
<polygon fill="none" stroke="black" points="8.5,-23 8.5,-133 161.5,-133 161.5,-23 8.5,-23"/>
<text text-anchor="start" x="12.5" y="-121" font-family="arial" font-size="10.00"> + afterPasteDirec : Helper.Direc </text>
<text text-anchor="start" x="12.5" y="-108" font-family="arial" font-size="10.00"> + doorLoc : Vector </text>
<text text-anchor="start" x="12.5" y="-95" font-family="arial" font-size="10.00"> + doorMaterial : Material </text>
<text text-anchor="start" x="12.5" y="-82" font-family="arial" font-size="10.00"> + height : int </text>
<text text-anchor="start" x="12.5" y="-69" font-family="arial" font-size="10.00"> + initDirec : Helper.Direc </text>
<text text-anchor="start" x="12.5" y="-56" font-family="arial" font-size="10.00"> + placementLoc : Vector </text>
<text text-anchor="start" x="12.5" y="-43" font-family="arial" font-size="10.00"> + redstonePos : Vector </text>
<text text-anchor="start" x="12.5" y="-30" font-family="arial" font-size="10.00"> + width : int </text>
<polygon fill="none" stroke="black" points="8.5,-4 8.5,-23 161.5,-23 161.5,-4 8.5,-4"/>
<text text-anchor="start" x="12.5" y="-11" font-family="arial" font-size="10.00"> ~ Connector() </text>
</a>
</g>
<g><a xlink:href="./Module.Connector.html" xlink:title="&lt;TABLE&gt;">
</a>
</g>
</g>
</g>
</svg>
