<?xml version="1.0" encoding="UTF-8" standalone="no"?>
<!DOCTYPE svg PUBLIC "-//W3C//DTD SVG 1.1//EN"
 "http://www.w3.org/Graphics/SVG/1.1/DTD/svg11.dtd">
<!-- Generated by graphviz version 2.38.0 (20140413.2041)
 -->
<!-- Title: G Pages: 1 -->
<svg width="121pt" height="125pt"
 viewBox="0.00 0.00 121.00 125.00" xmlns="http://www.w3.org/2000/svg" xmlns:xlink="http://www.w3.org/1999/xlink">
<g id="graph0" class="graph" transform="scale(1 1) rotate(0) translate(4 121)">
<title>G</title>
<polygon fill="white" stroke="none" points="-4,4 -4,-121 117,-121 117,4 -4,4"/>
<!-- c329 -->
<g id="node1" class="node"><title>c329</title>
<g id="a_node1"><a xlink:href="./Module.ModuleType.html" xlink:title="&lt;TABLE&gt;">
</a>
</g>
<g id="a_node1_0"><a xlink:href="./Module.ModuleType.html" xlink:title="dunGen.Module.ModuleType" target="_parent">
<polygon fill="lemonChiffon" stroke="none" points="8,-4 8,-113 105,-113 105,-4 8,-4"/>
<polygon fill="none" stroke="black" points="8.5,-80.5 8.5,-112.5 105.5,-112.5 105.5,-80.5 8.5,-80.5"/>
<text text-anchor="start" x="22" y="-100.5" font-family="arial" font-size="10.00"> «enumeration» </text>
<text text-anchor="start" x="27.5" y="-87.5" font-family="arial" font-size="10.00"> ModuleType </text>
<polygon fill="none" stroke="black" points="8.5,-61.5 8.5,-80.5 105.5,-80.5 105.5,-61.5 8.5,-61.5"/>
<text text-anchor="start" x="12.5" y="-68.5" font-family="arial" font-size="10.00"> &#160;</text>
<polygon fill="none" stroke="black" points="8.5,-3.5 8.5,-61.5 105.5,-61.5 105.5,-3.5 8.5,-3.5"/>
<text text-anchor="start" x="12.5" y="-49.5" font-family="arial" font-size="10.00"> ENTRY </text>
<text text-anchor="start" x="12.5" y="-36.5" font-family="arial" font-size="10.00"> PASSAGEWAY </text>
<text text-anchor="start" x="12.5" y="-23.5" font-family="arial" font-size="10.00"> PLATFORMROOM </text>
<text text-anchor="start" x="12.5" y="-10.5" font-family="arial" font-size="10.00"> BATTLEROOM </text>
</a>
</g>
<g><a xlink:href="./Module.ModuleType.html" xlink:title="&lt;TABLE&gt;">
</a>
</g>
</g>
</g>
</svg>
