<?xml version="1.0" encoding="UTF-8" standalone="no"?>
<!DOCTYPE svg PUBLIC "-//W3C//DTD SVG 1.1//EN"
 "http://www.w3.org/Graphics/SVG/1.1/DTD/svg11.dtd">
<!-- Generated by graphviz version 2.38.0 (20140413.2041)
 -->
<!-- Title: G Pages: 1 -->
<svg width="834pt" height="744pt"
 viewBox="0.00 0.00 834.00 744.00" xmlns="http://www.w3.org/2000/svg" xmlns:xlink="http://www.w3.org/1999/xlink">
<g id="graph0" class="graph" transform="scale(1 1) rotate(0) translate(4 740)">
<title>G</title>
<polygon fill="white" stroke="none" points="-4,4 -4,-740 830,-740 830,4 -4,4"/>
<!-- c280 -->
<g id="node1" class="node"><title>c280</title>
<g id="a_node1"><a xlink:href="./Room.html" xlink:title="&lt;TABLE&gt;">
</a>
</g>
<g id="a_node1_0"><a xlink:href="./Room.html" xlink:title="dunGen.Room" target="_parent">
<polygon fill="none" stroke="black" points="8.5,-178 8.5,-197 381.5,-197 381.5,-178 8.5,-178"/>
<text text-anchor="start" x="179" y="-185" font-family="arial italic" font-size="10.00"> Room </text>
<polygon fill="none" stroke="black" points="8.5,-133 8.5,-178 381.5,-178 381.5,-133 8.5,-133"/>
<text text-anchor="start" x="12.5" y="-166" font-family="arial" font-size="10.00"> # checkTask : TaskWithCallback </text>
<text text-anchor="start" x="12.5" y="-153" font-family="arial" font-size="10.00"> &#45; tasks : List&lt;RoomTask&gt; </text>
<text text-anchor="start" x="12.5" y="-140" font-family="arial" font-size="10.00"> # trackedEnemies : List&lt;Entity&gt; </text>
<polygon fill="none" stroke="black" points="8.5,-10 8.5,-133 381.5,-133 381.5,-10 8.5,-10"/>
<text text-anchor="start" x="12.5" y="-121" font-family="arial" font-size="10.00"> + Room(parent : DunGen, name : String, targetL : Vector, towardsD : Helper.Direc) </text>
<text text-anchor="start" x="12.5" y="-108" font-family="arial" font-size="10.00"> + delete() </text>
<text text-anchor="start" x="12.5" y="-95" font-family="arial" font-size="10.00"> + prePlacementActions() </text>
<text text-anchor="start" x="12.5" y="-82" font-family="arial" font-size="10.00"> + addTrackedEntity(e : Entity) </text>
<text text-anchor="start" x="12.5" y="-69" font-family="arial italic" font-size="10.00"> + checkRoomDone(v : Void) : Void </text>
<text text-anchor="start" x="12.5" y="-56" font-family="arial" font-size="10.00"> + loadConfig() </text>
<text text-anchor="start" x="12.5" y="-43" font-family="arial" font-size="10.00"> + postPlacementActions() </text>
<text text-anchor="start" x="12.5" y="-30" font-family="arial" font-size="10.00"> + register() </text>
<text text-anchor="start" x="12.5" y="-17" font-family="arial" font-size="10.00"> + unregister() </text>
</a>
</g>
<g><a xlink:href="./Room.html" xlink:title="&lt;TABLE&gt;">
</a>
</g>
</g>
<!-- c282 -->
<g id="node2" class="node"><title>c282</title>
<g id="a_node2"><a xlink:href="./Passageway.html" xlink:title="&lt;TABLE&gt;">
</a>
</g>
<g id="a_node2_1"><a xlink:href="./Passageway.html" xlink:title="dunGen.Passageway" target="_parent">
<polygon fill="none" stroke="black" points="415.5,-185 415.5,-204 818.5,-204 818.5,-185 415.5,-185"/>
<text text-anchor="start" x="586" y="-192" font-family="arial" font-size="10.00"> Passageway </text>
<polygon fill="none" stroke="black" points="415.5,-140 415.5,-185 818.5,-185 818.5,-140 415.5,-140"/>
<text text-anchor="start" x="419.5" y="-173" font-family="arial" font-size="10.00"> &#45; entryType : Passageway.DoorType </text>
<text text-anchor="start" x="419.5" y="-160" font-family="arial" font-size="10.00"> &#45; exitType : Passageway.DoorType </text>
<text text-anchor="start" x="419.5" y="-147" font-family="arial" font-size="10.00"> + respawnLoc : Vector </text>
<polygon fill="none" stroke="black" points="415.5,-4 415.5,-140 818.5,-140 818.5,-4 415.5,-4"/>
<text text-anchor="start" x="419.5" y="-128" font-family="arial" font-size="10.00"> + Passageway(parent : DunGen, name : String, targetL : Vector, towardsD : Helper.Direc) </text>
<text text-anchor="start" x="419.5" y="-115" font-family="arial" font-size="10.00"> &#45; genWall(relLowerLeft : Vector, height : int, width : int, material : Material) </text>
<text text-anchor="start" x="419.5" y="-102" font-family="arial" font-size="10.00"> + loadConfig() </text>
<text text-anchor="start" x="419.5" y="-89" font-family="arial" font-size="10.00"> + onNextRoomButtonPress(event : PlayerInteractEvent) </text>
<text text-anchor="start" x="419.5" y="-76" font-family="arial" font-size="10.00"> + postPlacementActions() </text>
<text text-anchor="start" x="419.5" y="-63" font-family="arial" font-size="10.00"> + prePlacementActions() </text>
<text text-anchor="start" x="419.5" y="-50" font-family="arial" font-size="10.00"> + register() </text>
<text text-anchor="start" x="419.5" y="-37" font-family="arial" font-size="10.00"> + toggleEntry(open : boolean) </text>
<text text-anchor="start" x="419.5" y="-24" font-family="arial" font-size="10.00"> + toggleExit(open : boolean) </text>
<text text-anchor="start" x="419.5" y="-11" font-family="arial" font-size="10.00"> + unregister() </text>
</a>
</g>
<g><a xlink:href="./Passageway.html" xlink:title="&lt;TABLE&gt;">
</a>
</g>
</g>
<!-- c284 -->
<g id="node3" class="node"><title>c284</title>
<g id="a_node3"><a xlink:href="./Module.html" xlink:title="&lt;TABLE&gt;">
</a>
</g>
<g id="a_node3_2"><a xlink:href="./Module.html" xlink:title="dunGen.Module" target="_parent">
<polygon fill="lemonChiffon" stroke="none" points="179,-248 179,-656 632,-656 632,-248 179,-248"/>
<polygon fill="none" stroke="black" points="179.5,-637 179.5,-656 632.5,-656 632.5,-637 179.5,-637"/>
<text text-anchor="start" x="387.5" y="-644" font-family="arial italic" font-size="10.00"> Module </text>
<polygon fill="none" stroke="black" points="179.5,-462 179.5,-637 632.5,-637 632.5,-462 179.5,-462"/>
<text text-anchor="start" x="183.5" y="-625" font-family="arial" font-size="10.00"> + conf : FileConfiguration </text>
<text text-anchor="start" x="183.5" y="-612" font-family="arial" font-size="10.00"> # name : String </text>
<text text-anchor="start" x="183.5" y="-599" font-family="arial" font-size="10.00"> # origin : Vector </text>
<text text-anchor="start" x="183.5" y="-586" font-family="arial" font-size="10.00"> # parent : DunGen </text>
<text text-anchor="start" x="183.5" y="-573" font-family="arial" font-size="10.00"> # description : String </text>
<text text-anchor="start" x="183.5" y="-560" font-family="arial" font-size="10.00"> # entry : Module.Connector </text>
<text text-anchor="start" x="183.5" y="-547" font-family="arial" font-size="10.00"> # exit : Module.Connector </text>
<text text-anchor="start" x="183.5" y="-534" font-family="arial" font-size="10.00"> # fileName : String </text>
<text text-anchor="start" x="183.5" y="-521" font-family="arial" font-size="10.00"> + type : Module.ModuleType </text>
<text text-anchor="start" x="183.5" y="-508" font-family="arial" font-size="10.00"> + modVolume : CuboidRegion </text>
<text text-anchor="start" x="183.5" y="-495" font-family="arial" font-size="10.00"> # turnedBy : int </text>
<text text-anchor="start" x="183.5" y="-482" font-family="arial" font-size="10.00"> + cc : CuboidClipboard </text>
<text text-anchor="start" x="183.5" y="-469" font-family="arial" font-size="10.00"> &#45; placed : boolean </text>
<polygon fill="none" stroke="black" points="179.5,-248 179.5,-462 632.5,-462 632.5,-248 179.5,-248"/>
<text text-anchor="start" x="183.5" y="-450" font-family="arial" font-size="10.00"> + Module(parent : DunGen, name : String, targetL : Vector, towardsD : Helper.Direc) </text>
<text text-anchor="start" x="183.5" y="-437" font-family="arial" font-size="10.00"> + getConfig(parent : DunGen, name : String) : YamlConfiguration </text>
<text text-anchor="start" x="183.5" y="-424" font-family="arial" font-size="10.00"> + getType(parent : DunGen, name : String) : Module.ModuleType </text>
<text text-anchor="start" x="183.5" y="-411" font-family="arial" font-size="10.00"> + delete() </text>
<text text-anchor="start" x="183.5" y="-398" font-family="arial" font-size="10.00"> + fillVolumeRelative(v1 : Vector, v2 : Vector, m : Material) </text>
<text text-anchor="start" x="183.5" y="-385" font-family="arial" font-size="10.00"> + getNextEntryPos() : Vector </text>
<text text-anchor="start" x="183.5" y="-372" font-family="arial" font-size="10.00"> + getPlugin() : DunGen </text>
<text text-anchor="start" x="183.5" y="-359" font-family="arial" font-size="10.00"> + loadConfig() </text>
<text text-anchor="start" x="183.5" y="-346" font-family="arial" font-size="10.00"> + place() </text>
<text text-anchor="start" x="183.5" y="-333" font-family="arial" font-size="10.00"> + placeBuildPlan2D(origin : Vector, plan : boolean[][], m : Material, height : int, overwriteAir : boolean) </text>
<text text-anchor="start" x="183.5" y="-320" font-family="arial italic" font-size="10.00"> + postPlacementActions() </text>
<text text-anchor="start" x="183.5" y="-307" font-family="arial italic" font-size="10.00"> + prePlacementActions() </text>
<text text-anchor="start" x="183.5" y="-294" font-family="arial italic" font-size="10.00"> + register() </text>
<text text-anchor="start" x="183.5" y="-281" font-family="arial" font-size="10.00"> + toGlobal(relativePt : Vector) : Vector </text>
<text text-anchor="start" x="183.5" y="-268" font-family="arial" font-size="10.00"> + toRelative(globalPt : Vector) : Vector </text>
<text text-anchor="start" x="183.5" y="-255" font-family="arial italic" font-size="10.00"> + unregister() </text>
</a>
</g>
<g><a xlink:href="./Module.html" xlink:title="&lt;TABLE&gt;">
</a>
</g>
</g>
<!-- c284&#45;&gt;c280 -->
<g id="edge1" class="edge"><title>c284:p&#45;&gt;c280:p</title>
<path fill="none" stroke="black" d="M276.252,-239.058C267.558,-224.801 259.09,-210.916 251.103,-197.818"/>
<polygon fill="none" stroke="black" points="273.498,-241.264 281.692,-247.979 279.474,-237.619 273.498,-241.264"/>
</g>
<!-- c284&#45;&gt;c282 -->
<g id="edge2" class="edge"><title>c284:p&#45;&gt;c282:p</title>
<path fill="none" stroke="black" d="M534.652,-239.215C541.956,-227.238 549.101,-215.522 555.936,-204.314"/>
<polygon fill="none" stroke="black" points="531.526,-237.619 529.308,-247.979 537.502,-241.264 531.526,-237.619"/>
</g>
<!-- c301 -->
<g id="node4" class="node"><title>c301</title>
<g id="a_node4"><a xlink:href="http://docs.oracle.com/javase/7/docs/api/org/bukkit/event/Listener.html" xlink:title="&lt;TABLE&gt;">
</a>
</g>
<g id="a_node4_3"><a xlink:href="http://docs.oracle.com/javase/7/docs/api/org/bukkit/event/Listener.html" xlink:title="org.bukkit.event.Listener" target="_parent">
<polygon fill="none" stroke="black" points="374.5,-700 374.5,-732 436.5,-732 436.5,-700 374.5,-700"/>
<text text-anchor="start" x="378.5" y="-720" font-family="arial" font-size="10.00"> «interface» </text>
<text text-anchor="start" x="385" y="-707" font-family="arial" font-size="10.00"> Listener </text>
</a>
</g>
<g><a xlink:href="http://docs.oracle.com/javase/7/docs/api/org/bukkit/event/Listener.html" xlink:title="&lt;TABLE&gt;">
</a>
</g>
</g>
<!-- c301&#45;&gt;c284 -->
<g id="edge3" class="edge"><title>c301:p&#45;&gt;c284:p</title>
<path fill="none" stroke="black" stroke-dasharray="5,2" d="M405.5,-689.552C405.5,-680.276 405.5,-668.916 405.5,-656.243"/>
<polygon fill="none" stroke="black" points="402,-689.781 405.5,-699.781 409,-689.781 402,-689.781"/>
</g>
</g>
</svg>
