<?xml version="1.0" encoding="UTF-8" standalone="no"?>
<!DOCTYPE svg PUBLIC "-//W3C//DTD SVG 1.1//EN"
 "http://www.w3.org/Graphics/SVG/1.1/DTD/svg11.dtd">
<!-- Generated by graphviz version 2.38.0 (20140413.2041)
 -->
<!-- Title: G Pages: 1 -->
<svg width="102pt" height="112pt"
 viewBox="0.00 0.00 102.00 112.00" xmlns="http://www.w3.org/2000/svg" xmlns:xlink="http://www.w3.org/1999/xlink">
<g id="graph0" class="graph" transform="scale(1 1) rotate(0) translate(4 108)">
<title>G</title>
<polygon fill="white" stroke="none" points="-4,4 -4,-108 98,-108 98,4 -4,4"/>
<!-- c368 -->
<g id="node1" class="node"><title>c368</title>
<g id="a_node1"><a xlink:href="./Passageway.DoorType.html" xlink:title="&lt;TABLE&gt;">
</a>
</g>
<g id="a_node1_0"><a xlink:href="./Passageway.DoorType.html" xlink:title="dunGen.Passageway.DoorType" target="_parent">
<polygon fill="lemonChiffon" stroke="none" points="8,-4 8,-100 86,-100 86,-4 8,-4"/>
<polygon fill="none" stroke="black" points="8,-68 8,-100 86,-100 86,-68 8,-68"/>
<text text-anchor="start" x="12" y="-88" font-family="arial" font-size="10.00"> «enumeration» </text>
<text text-anchor="start" x="23" y="-75" font-family="arial" font-size="10.00"> DoorType </text>
<polygon fill="none" stroke="black" points="8,-49 8,-68 86,-68 86,-49 8,-49"/>
<text text-anchor="start" x="12" y="-56" font-family="arial" font-size="10.00"> &#160;</text>
<polygon fill="none" stroke="black" points="8,-4 8,-49 86,-49 86,-4 8,-4"/>
<text text-anchor="start" x="12" y="-37" font-family="arial" font-size="10.00"> APPEARING </text>
<text text-anchor="start" x="12" y="-24" font-family="arial" font-size="10.00"> FALLING </text>
<text text-anchor="start" x="12" y="-11" font-family="arial" font-size="10.00"> PISTON </text>
</a>
</g>
<g><a xlink:href="./Passageway.DoorType.html" xlink:title="&lt;TABLE&gt;">
</a>
</g>
</g>
</g>
</svg>
