<?xml version="1.0" encoding="UTF-8" standalone="no"?>
<!DOCTYPE svg PUBLIC "-//W3C//DTD SVG 1.1//EN"
 "http://www.w3.org/Graphics/SVG/1.1/DTD/svg11.dtd">
<!-- Generated by graphviz version 2.38.0 (20140413.2041)
 -->
<!-- Title: G Pages: 1 -->
<svg width="477pt" height="795pt"
 viewBox="0.00 0.00 477.00 795.00" xmlns="http://www.w3.org/2000/svg" xmlns:xlink="http://www.w3.org/1999/xlink">
<g id="graph0" class="graph" transform="scale(1 1) rotate(0) translate(4 791)">
<title>G</title>
<polygon fill="white" stroke="none" points="-4,4 -4,-791 473,-791 473,4 -4,4"/>
<!-- c346 -->
<g id="node1" class="node"><title>c346</title>
<g id="a_node1"><a xlink:href="./Passageway.html" xlink:title="&lt;TABLE&gt;">
</a>
</g>
<g id="a_node1_0"><a xlink:href="./Passageway.html" xlink:title="dunGen.Passageway" target="_parent">
<polygon fill="lemonChiffon" stroke="none" points="33,-131 33,-331 436,-331 436,-131 33,-131"/>
<polygon fill="none" stroke="black" points="33.5,-312 33.5,-331 436.5,-331 436.5,-312 33.5,-312"/>
<text text-anchor="start" x="204" y="-319" font-family="arial" font-size="10.00"> Passageway </text>
<polygon fill="none" stroke="black" points="33.5,-267 33.5,-312 436.5,-312 436.5,-267 33.5,-267"/>
<text text-anchor="start" x="37.5" y="-300" font-family="arial" font-size="10.00"> &#45; entryType : Passageway.DoorType </text>
<text text-anchor="start" x="37.5" y="-287" font-family="arial" font-size="10.00"> &#45; exitType : Passageway.DoorType </text>
<text text-anchor="start" x="37.5" y="-274" font-family="arial" font-size="10.00"> + respawnLoc : Vector </text>
<polygon fill="none" stroke="black" points="33.5,-131 33.5,-267 436.5,-267 436.5,-131 33.5,-131"/>
<text text-anchor="start" x="37.5" y="-255" font-family="arial" font-size="10.00"> + Passageway(parent : DunGen, name : String, targetL : Vector, towardsD : Helper.Direc) </text>
<text text-anchor="start" x="37.5" y="-242" font-family="arial" font-size="10.00"> &#45; genWall(relLowerLeft : Vector, height : int, width : int, material : Material) </text>
<text text-anchor="start" x="37.5" y="-229" font-family="arial" font-size="10.00"> + loadConfig() </text>
<text text-anchor="start" x="37.5" y="-216" font-family="arial" font-size="10.00"> + onNextRoomButtonPress(event : PlayerInteractEvent) </text>
<text text-anchor="start" x="37.5" y="-203" font-family="arial" font-size="10.00"> + postPlacementActions() </text>
<text text-anchor="start" x="37.5" y="-190" font-family="arial" font-size="10.00"> + prePlacementActions() </text>
<text text-anchor="start" x="37.5" y="-177" font-family="arial" font-size="10.00"> + register() </text>
<text text-anchor="start" x="37.5" y="-164" font-family="arial" font-size="10.00"> + toggleEntry(open : boolean) </text>
<text text-anchor="start" x="37.5" y="-151" font-family="arial" font-size="10.00"> + toggleExit(open : boolean) </text>
<text text-anchor="start" x="37.5" y="-138" font-family="arial" font-size="10.00"> + unregister() </text>
</a>
</g>
<g><a xlink:href="./Passageway.html" xlink:title="&lt;TABLE&gt;">
</a>
</g>
</g>
<!-- c353 -->
<g id="node3" class="node"><title>c353</title>
<g id="a_node3"><a xlink:href="./Entry.html" xlink:title="&lt;TABLE&gt;">
</a>
</g>
<g id="a_node3_1"><a xlink:href="./Entry.html" xlink:title="dunGen.Entry" target="_parent">
<polygon fill="none" stroke="black" points="49.5,-67.5 49.5,-86.5 420.5,-86.5 420.5,-67.5 49.5,-67.5"/>
<text text-anchor="start" x="220" y="-74.5" font-family="arial" font-size="10.00"> Entry </text>
<polygon fill="none" stroke="black" points="49.5,-48.5 49.5,-67.5 420.5,-67.5 420.5,-48.5 49.5,-48.5"/>
<text text-anchor="start" x="53.5" y="-55.5" font-family="arial" font-size="10.00"> &#160;</text>
<polygon fill="none" stroke="black" points="49.5,-3.5 49.5,-48.5 420.5,-48.5 420.5,-3.5 49.5,-3.5"/>
<text text-anchor="start" x="53.5" y="-36.5" font-family="arial" font-size="10.00"> + Entry(parent : DunGen, name : String, targetL : Vector, towardsD : Helper.Direc) </text>
<text text-anchor="start" x="53.5" y="-23.5" font-family="arial" font-size="10.00"> + prePlacementActions() </text>
<text text-anchor="start" x="53.5" y="-10.5" font-family="arial" font-size="10.00"> + loadConfig() </text>
</a>
</g>
<g><a xlink:href="./Entry.html" xlink:title="&lt;TABLE&gt;">
</a>
</g>
</g>
<!-- c346&#45;&gt;c353 -->
<g id="edge2" class="edge"><title>c346:p&#45;&gt;c353:p</title>
<path fill="none" stroke="black" d="M234.5,-120.948C234.5,-109.073 234.5,-97.5985 234.5,-87.3608"/>
<polygon fill="none" stroke="black" points="231,-120.999 234.5,-130.999 238,-120.999 231,-120.999"/>
</g>
<!-- c348 -->
<g id="node2" class="node"><title>c348</title>
<g id="a_node2"><a xlink:href="./Module.html" xlink:title="&lt;TABLE&gt;">
</a>
</g>
<g id="a_node2_2"><a xlink:href="./Module.html" xlink:title="dunGen.Module" target="_parent">
<polygon fill="none" stroke="black" points="8.5,-764 8.5,-783 461.5,-783 461.5,-764 8.5,-764"/>
<text text-anchor="start" x="216.5" y="-771" font-family="arial italic" font-size="10.00"> Module </text>
<polygon fill="none" stroke="black" points="8.5,-589 8.5,-764 461.5,-764 461.5,-589 8.5,-589"/>
<text text-anchor="start" x="12.5" y="-752" font-family="arial" font-size="10.00"> + conf : FileConfiguration </text>
<text text-anchor="start" x="12.5" y="-739" font-family="arial" font-size="10.00"> # name : String </text>
<text text-anchor="start" x="12.5" y="-726" font-family="arial" font-size="10.00"> # origin : Vector </text>
<text text-anchor="start" x="12.5" y="-713" font-family="arial" font-size="10.00"> # parent : DunGen </text>
<text text-anchor="start" x="12.5" y="-700" font-family="arial" font-size="10.00"> # description : String </text>
<text text-anchor="start" x="12.5" y="-687" font-family="arial" font-size="10.00"> # entry : Module.Connector </text>
<text text-anchor="start" x="12.5" y="-674" font-family="arial" font-size="10.00"> # exit : Module.Connector </text>
<text text-anchor="start" x="12.5" y="-661" font-family="arial" font-size="10.00"> # fileName : String </text>
<text text-anchor="start" x="12.5" y="-648" font-family="arial" font-size="10.00"> + type : Module.ModuleType </text>
<text text-anchor="start" x="12.5" y="-635" font-family="arial" font-size="10.00"> + modVolume : CuboidRegion </text>
<text text-anchor="start" x="12.5" y="-622" font-family="arial" font-size="10.00"> # turnedBy : int </text>
<text text-anchor="start" x="12.5" y="-609" font-family="arial" font-size="10.00"> + cc : CuboidClipboard </text>
<text text-anchor="start" x="12.5" y="-596" font-family="arial" font-size="10.00"> &#45; placed : boolean </text>
<polygon fill="none" stroke="black" points="8.5,-375 8.5,-589 461.5,-589 461.5,-375 8.5,-375"/>
<text text-anchor="start" x="12.5" y="-577" font-family="arial" font-size="10.00"> + Module(parent : DunGen, name : String, targetL : Vector, towardsD : Helper.Direc) </text>
<text text-anchor="start" x="12.5" y="-564" font-family="arial" font-size="10.00"> + getConfig(parent : DunGen, name : String) : YamlConfiguration </text>
<text text-anchor="start" x="12.5" y="-551" font-family="arial" font-size="10.00"> + getType(parent : DunGen, name : String) : Module.ModuleType </text>
<text text-anchor="start" x="12.5" y="-538" font-family="arial" font-size="10.00"> + delete() </text>
<text text-anchor="start" x="12.5" y="-525" font-family="arial" font-size="10.00"> + fillVolumeRelative(v1 : Vector, v2 : Vector, m : Material) </text>
<text text-anchor="start" x="12.5" y="-512" font-family="arial" font-size="10.00"> + getNextEntryPos() : Vector </text>
<text text-anchor="start" x="12.5" y="-499" font-family="arial" font-size="10.00"> + getPlugin() : DunGen </text>
<text text-anchor="start" x="12.5" y="-486" font-family="arial" font-size="10.00"> + loadConfig() </text>
<text text-anchor="start" x="12.5" y="-473" font-family="arial" font-size="10.00"> + place() </text>
<text text-anchor="start" x="12.5" y="-460" font-family="arial" font-size="10.00"> + placeBuildPlan2D(origin : Vector, plan : boolean[][], m : Material, height : int, overwriteAir : boolean) </text>
<text text-anchor="start" x="12.5" y="-447" font-family="arial italic" font-size="10.00"> + postPlacementActions() </text>
<text text-anchor="start" x="12.5" y="-434" font-family="arial italic" font-size="10.00"> + prePlacementActions() </text>
<text text-anchor="start" x="12.5" y="-421" font-family="arial italic" font-size="10.00"> + register() </text>
<text text-anchor="start" x="12.5" y="-408" font-family="arial" font-size="10.00"> + toGlobal(relativePt : Vector) : Vector </text>
<text text-anchor="start" x="12.5" y="-395" font-family="arial" font-size="10.00"> + toRelative(globalPt : Vector) : Vector </text>
<text text-anchor="start" x="12.5" y="-382" font-family="arial italic" font-size="10.00"> + unregister() </text>
</a>
</g>
<g><a xlink:href="./Module.html" xlink:title="&lt;TABLE&gt;">
</a>
</g>
</g>
<!-- c348&#45;&gt;c346 -->
<g id="edge1" class="edge"><title>c348:p&#45;&gt;c346:p</title>
<path fill="none" stroke="black" d="M234.5,-364.821C234.5,-353.328 234.5,-342.087 234.5,-331.314"/>
<polygon fill="none" stroke="black" points="231,-364.979 234.5,-374.979 238,-364.979 231,-364.979"/>
</g>
</g>
</svg>
