<?xml version="1.0" encoding="UTF-8" standalone="no"?>
<!DOCTYPE svg PUBLIC "-//W3C//DTD SVG 1.1//EN"
 "http://www.w3.org/Graphics/SVG/1.1/DTD/svg11.dtd">
<!-- Generated by graphviz version 2.38.0 (20140413.2041)
 -->
<!-- Title: G Pages: 1 -->
<svg width="433pt" height="382pt"
 viewBox="0.00 0.00 433.00 382.00" xmlns="http://www.w3.org/2000/svg" xmlns:xlink="http://www.w3.org/1999/xlink">
<g id="graph0" class="graph" transform="scale(1 1) rotate(0) translate(4 378)">
<title>G</title>
<polygon fill="white" stroke="none" points="-4,4 -4,-378 429,-378 429,4 -4,4"/>
<!-- c386 -->
<g id="node1" class="node"><title>c386</title>
<g id="a_node1"><a xlink:href="./Room.html" xlink:title="&lt;TABLE&gt;">
</a>
</g>
<g id="a_node1_0"><a xlink:href="./Room.html" xlink:title="dunGen.Room" target="_parent">
<polygon fill="none" stroke="black" points="26.5,-350.5 26.5,-369.5 399.5,-369.5 399.5,-350.5 26.5,-350.5"/>
<text text-anchor="start" x="197" y="-357.5" font-family="arial italic" font-size="10.00"> Room </text>
<polygon fill="none" stroke="black" points="26.5,-305.5 26.5,-350.5 399.5,-350.5 399.5,-305.5 26.5,-305.5"/>
<text text-anchor="start" x="30.5" y="-338.5" font-family="arial" font-size="10.00"> # checkTask : TaskWithCallback </text>
<text text-anchor="start" x="30.5" y="-325.5" font-family="arial" font-size="10.00"> &#45; tasks : List&lt;RoomTask&gt; </text>
<text text-anchor="start" x="30.5" y="-312.5" font-family="arial" font-size="10.00"> # trackedEnemies : List&lt;Entity&gt; </text>
<polygon fill="none" stroke="black" points="26.5,-182.5 26.5,-305.5 399.5,-305.5 399.5,-182.5 26.5,-182.5"/>
<text text-anchor="start" x="30.5" y="-293.5" font-family="arial" font-size="10.00"> + Room(parent : DunGen, name : String, targetL : Vector, towardsD : Helper.Direc) </text>
<text text-anchor="start" x="30.5" y="-280.5" font-family="arial" font-size="10.00"> + delete() </text>
<text text-anchor="start" x="30.5" y="-267.5" font-family="arial" font-size="10.00"> + prePlacementActions() </text>
<text text-anchor="start" x="30.5" y="-254.5" font-family="arial" font-size="10.00"> + addTrackedEntity(e : Entity) </text>
<text text-anchor="start" x="30.5" y="-241.5" font-family="arial italic" font-size="10.00"> + checkRoomDone(v : Void) : Void </text>
<text text-anchor="start" x="30.5" y="-228.5" font-family="arial" font-size="10.00"> + loadConfig() </text>
<text text-anchor="start" x="30.5" y="-215.5" font-family="arial" font-size="10.00"> + postPlacementActions() </text>
<text text-anchor="start" x="30.5" y="-202.5" font-family="arial" font-size="10.00"> + register() </text>
<text text-anchor="start" x="30.5" y="-189.5" font-family="arial" font-size="10.00"> + unregister() </text>
</a>
</g>
<g><a xlink:href="./Room.html" xlink:title="&lt;TABLE&gt;">
</a>
</g>
</g>
<!-- c387 -->
<g id="node2" class="node"><title>c387</title>
<g id="a_node2"><a xlink:href="./PlatformRoom.html" xlink:title="&lt;TABLE&gt;">
</a>
</g>
<g id="a_node2_1"><a xlink:href="./PlatformRoom.html" xlink:title="dunGen.PlatformRoom" target="_parent">
<polygon fill="lemonChiffon" stroke="none" points="8,-4 8,-139 417,-139 417,-4 8,-4"/>
<polygon fill="none" stroke="black" points="8.5,-119.5 8.5,-138.5 417.5,-138.5 417.5,-119.5 8.5,-119.5"/>
<text text-anchor="start" x="179" y="-126.5" font-family="arial" font-size="10.00"> PlatformRoom </text>
<polygon fill="none" stroke="black" points="8.5,-74.5 8.5,-119.5 417.5,-119.5 417.5,-74.5 8.5,-74.5"/>
<text text-anchor="start" x="12.5" y="-107.5" font-family="arial" font-size="10.00"> ~ targetReg : CuboidRegion </text>
<text text-anchor="start" x="12.5" y="-94.5" font-family="arial" font-size="10.00"> ~ targetRegCorner1 : Vector </text>
<text text-anchor="start" x="12.5" y="-81.5" font-family="arial" font-size="10.00"> ~ targetRegCorner2 : Vector </text>
<polygon fill="none" stroke="black" points="8.5,-3.5 8.5,-74.5 417.5,-74.5 417.5,-3.5 8.5,-3.5"/>
<text text-anchor="start" x="12.5" y="-62.5" font-family="arial" font-size="10.00"> + PlatformRoom(parent : DunGen, name : String, targetL : Vector, towardsD : Helper.Direc) </text>
<text text-anchor="start" x="12.5" y="-49.5" font-family="arial" font-size="10.00"> + checkRoomDone(v : Void) : Void </text>
<text text-anchor="start" x="12.5" y="-36.5" font-family="arial" font-size="10.00"> + loadConfig() </text>
<text text-anchor="start" x="12.5" y="-23.5" font-family="arial" font-size="10.00"> + prePlacementActions() </text>
<text text-anchor="start" x="12.5" y="-10.5" font-family="arial" font-size="10.00"> + postPlacementActions() </text>
</a>
</g>
<g><a xlink:href="./PlatformRoom.html" xlink:title="&lt;TABLE&gt;">
</a>
</g>
</g>
<!-- c386&#45;&gt;c387 -->
<g id="edge1" class="edge"><title>c386:p&#45;&gt;c387:p</title>
<path fill="none" stroke="black" d="M212.5,-172.865C212.5,-161.423 212.5,-149.999 212.5,-139.177"/>
<polygon fill="none" stroke="black" points="209,-172.911 212.5,-182.911 216,-172.911 209,-172.911"/>
</g>
</g>
</svg>
