<?xml version="1.0" encoding="UTF-8" standalone="no"?>
<!DOCTYPE svg PUBLIC "-//W3C//DTD SVG 1.1//EN"
 "http://www.w3.org/Graphics/SVG/1.1/DTD/svg11.dtd">
<!-- Generated by graphviz version 2.38.0 (20140413.2041)
 -->
<!-- Title: G Pages: 1 -->
<svg width="866pt" height="834pt"
 viewBox="0.00 0.00 866.00 834.00" xmlns="http://www.w3.org/2000/svg" xmlns:xlink="http://www.w3.org/1999/xlink">
<g id="graph0" class="graph" transform="scale(1 1) rotate(0) translate(4 830)">
<title>G</title>
<polygon fill="white" stroke="none" points="-4,4 -4,-830 862,-830 862,4 -4,4"/>
<!-- c428 -->
<g id="node1" class="node"><title>c428</title>
<g id="a_node1"><a xlink:href="./Room.html" xlink:title="&lt;TABLE&gt;">
</a>
</g>
<g id="a_node1_0"><a xlink:href="./Room.html" xlink:title="dunGen.Room" target="_parent">
<polygon fill="lemonChiffon" stroke="none" points="245,-183 245,-370 618,-370 618,-183 245,-183"/>
<polygon fill="none" stroke="black" points="245.5,-350.5 245.5,-369.5 618.5,-369.5 618.5,-350.5 245.5,-350.5"/>
<text text-anchor="start" x="416" y="-357.5" font-family="arial italic" font-size="10.00"> Room </text>
<polygon fill="none" stroke="black" points="245.5,-305.5 245.5,-350.5 618.5,-350.5 618.5,-305.5 245.5,-305.5"/>
<text text-anchor="start" x="249.5" y="-338.5" font-family="arial" font-size="10.00"> # checkTask : TaskWithCallback </text>
<text text-anchor="start" x="249.5" y="-325.5" font-family="arial" font-size="10.00"> &#45; tasks : List&lt;RoomTask&gt; </text>
<text text-anchor="start" x="249.5" y="-312.5" font-family="arial" font-size="10.00"> # trackedEnemies : List&lt;Entity&gt; </text>
<polygon fill="none" stroke="black" points="245.5,-182.5 245.5,-305.5 618.5,-305.5 618.5,-182.5 245.5,-182.5"/>
<text text-anchor="start" x="249.5" y="-293.5" font-family="arial" font-size="10.00"> + Room(parent : DunGen, name : String, targetL : Vector, towardsD : Helper.Direc) </text>
<text text-anchor="start" x="249.5" y="-280.5" font-family="arial" font-size="10.00"> + delete() </text>
<text text-anchor="start" x="249.5" y="-267.5" font-family="arial" font-size="10.00"> + prePlacementActions() </text>
<text text-anchor="start" x="249.5" y="-254.5" font-family="arial" font-size="10.00"> + addTrackedEntity(e : Entity) </text>
<text text-anchor="start" x="249.5" y="-241.5" font-family="arial italic" font-size="10.00"> + checkRoomDone(v : Void) : Void </text>
<text text-anchor="start" x="249.5" y="-228.5" font-family="arial" font-size="10.00"> + loadConfig() </text>
<text text-anchor="start" x="249.5" y="-215.5" font-family="arial" font-size="10.00"> + postPlacementActions() </text>
<text text-anchor="start" x="249.5" y="-202.5" font-family="arial" font-size="10.00"> + register() </text>
<text text-anchor="start" x="249.5" y="-189.5" font-family="arial" font-size="10.00"> + unregister() </text>
</a>
</g>
<g><a xlink:href="./Room.html" xlink:title="&lt;TABLE&gt;">
</a>
</g>
</g>
<!-- c429 -->
<g id="node2" class="node"><title>c429</title>
<g id="a_node2"><a xlink:href="./PlatformRoom.html" xlink:title="&lt;TABLE&gt;">
</a>
</g>
<g id="a_node2_1"><a xlink:href="./PlatformRoom.html" xlink:title="dunGen.PlatformRoom" target="_parent">
<polygon fill="none" stroke="black" points="8.5,-119.5 8.5,-138.5 417.5,-138.5 417.5,-119.5 8.5,-119.5"/>
<text text-anchor="start" x="179" y="-126.5" font-family="arial" font-size="10.00"> PlatformRoom </text>
<polygon fill="none" stroke="black" points="8.5,-74.5 8.5,-119.5 417.5,-119.5 417.5,-74.5 8.5,-74.5"/>
<text text-anchor="start" x="12.5" y="-107.5" font-family="arial" font-size="10.00"> ~ targetReg : CuboidRegion </text>
<text text-anchor="start" x="12.5" y="-94.5" font-family="arial" font-size="10.00"> ~ targetRegCorner1 : Vector </text>
<text text-anchor="start" x="12.5" y="-81.5" font-family="arial" font-size="10.00"> ~ targetRegCorner2 : Vector </text>
<polygon fill="none" stroke="black" points="8.5,-3.5 8.5,-74.5 417.5,-74.5 417.5,-3.5 8.5,-3.5"/>
<text text-anchor="start" x="12.5" y="-62.5" font-family="arial" font-size="10.00"> + PlatformRoom(parent : DunGen, name : String, targetL : Vector, towardsD : Helper.Direc) </text>
<text text-anchor="start" x="12.5" y="-49.5" font-family="arial" font-size="10.00"> + checkRoomDone(v : Void) : Void </text>
<text text-anchor="start" x="12.5" y="-36.5" font-family="arial" font-size="10.00"> + loadConfig() </text>
<text text-anchor="start" x="12.5" y="-23.5" font-family="arial" font-size="10.00"> + prePlacementActions() </text>
<text text-anchor="start" x="12.5" y="-10.5" font-family="arial" font-size="10.00"> + postPlacementActions() </text>
</a>
</g>
<g><a xlink:href="./PlatformRoom.html" xlink:title="&lt;TABLE&gt;">
</a>
</g>
</g>
<!-- c428&#45;&gt;c429 -->
<g id="edge2" class="edge"><title>c428:p&#45;&gt;c429:p</title>
<path fill="none" stroke="black" d="M324.142,-175.986C310.677,-163.504 297.169,-150.983 284.433,-139.177"/>
<polygon fill="none" stroke="black" points="321.9,-178.679 331.613,-182.911 326.658,-173.546 321.9,-178.679"/>
</g>
<!-- c440 -->
<g id="node4" class="node"><title>c440</title>
<g id="a_node4"><a xlink:href="./BattleRoom.html" xlink:title="&lt;TABLE&gt;">
</a>
</g>
<g id="a_node4_2"><a xlink:href="./BattleRoom.html" xlink:title="dunGen.BattleRoom" target="_parent">
<polygon fill="none" stroke="black" points="451.5,-100.5 451.5,-119.5 850.5,-119.5 850.5,-100.5 451.5,-100.5"/>
<text text-anchor="start" x="622" y="-107.5" font-family="arial" font-size="10.00"> BattleRoom </text>
<polygon fill="none" stroke="black" points="451.5,-81.5 451.5,-100.5 850.5,-100.5 850.5,-81.5 451.5,-81.5"/>
<text text-anchor="start" x="455.5" y="-88.5" font-family="arial" font-size="10.00"> &#160;</text>
<polygon fill="none" stroke="black" points="451.5,-23.5 451.5,-81.5 850.5,-81.5 850.5,-23.5 451.5,-23.5"/>
<text text-anchor="start" x="455.5" y="-69.5" font-family="arial" font-size="10.00"> + BattleRoom(parent : DunGen, name : String, targetL : Vector, towardsD : Helper.Direc) </text>
<text text-anchor="start" x="455.5" y="-56.5" font-family="arial" font-size="10.00"> + checkRoomDone(v : Void) : Void </text>
<text text-anchor="start" x="455.5" y="-43.5" font-family="arial" font-size="10.00"> + loadConfig() </text>
<text text-anchor="start" x="455.5" y="-30.5" font-family="arial" font-size="10.00"> + prePlacementActions() </text>
</a>
</g>
<g><a xlink:href="./BattleRoom.html" xlink:title="&lt;TABLE&gt;">
</a>
</g>
</g>
<!-- c428&#45;&gt;c440 -->
<g id="edge3" class="edge"><title>c428:p&#45;&gt;c440:p</title>
<path fill="none" stroke="black" d="M538.898,-175.949C560.159,-156.241 581.526,-136.435 599.791,-119.505"/>
<polygon fill="none" stroke="black" points="536.342,-173.546 531.387,-182.911 541.1,-178.679 536.342,-173.546"/>
</g>
<!-- c432 -->
<g id="node3" class="node"><title>c432</title>
<g id="a_node3"><a xlink:href="./Module.html" xlink:title="&lt;TABLE&gt;">
</a>
</g>
<g id="a_node3_3"><a xlink:href="./Module.html" xlink:title="dunGen.Module" target="_parent">
<polygon fill="none" stroke="black" points="205.5,-803 205.5,-822 658.5,-822 658.5,-803 205.5,-803"/>
<text text-anchor="start" x="413.5" y="-810" font-family="arial italic" font-size="10.00"> Module </text>
<polygon fill="none" stroke="black" points="205.5,-628 205.5,-803 658.5,-803 658.5,-628 205.5,-628"/>
<text text-anchor="start" x="209.5" y="-791" font-family="arial" font-size="10.00"> + conf : FileConfiguration </text>
<text text-anchor="start" x="209.5" y="-778" font-family="arial" font-size="10.00"> # name : String </text>
<text text-anchor="start" x="209.5" y="-765" font-family="arial" font-size="10.00"> # origin : Vector </text>
<text text-anchor="start" x="209.5" y="-752" font-family="arial" font-size="10.00"> # parent : DunGen </text>
<text text-anchor="start" x="209.5" y="-739" font-family="arial" font-size="10.00"> # description : String </text>
<text text-anchor="start" x="209.5" y="-726" font-family="arial" font-size="10.00"> # entry : Module.Connector </text>
<text text-anchor="start" x="209.5" y="-713" font-family="arial" font-size="10.00"> # exit : Module.Connector </text>
<text text-anchor="start" x="209.5" y="-700" font-family="arial" font-size="10.00"> # fileName : String </text>
<text text-anchor="start" x="209.5" y="-687" font-family="arial" font-size="10.00"> + type : Module.ModuleType </text>
<text text-anchor="start" x="209.5" y="-674" font-family="arial" font-size="10.00"> + modVolume : CuboidRegion </text>
<text text-anchor="start" x="209.5" y="-661" font-family="arial" font-size="10.00"> # turnedBy : int </text>
<text text-anchor="start" x="209.5" y="-648" font-family="arial" font-size="10.00"> + cc : CuboidClipboard </text>
<text text-anchor="start" x="209.5" y="-635" font-family="arial" font-size="10.00"> &#45; placed : boolean </text>
<polygon fill="none" stroke="black" points="205.5,-414 205.5,-628 658.5,-628 658.5,-414 205.5,-414"/>
<text text-anchor="start" x="209.5" y="-616" font-family="arial" font-size="10.00"> + Module(parent : DunGen, name : String, targetL : Vector, towardsD : Helper.Direc) </text>
<text text-anchor="start" x="209.5" y="-603" font-family="arial" font-size="10.00"> + getConfig(parent : DunGen, name : String) : YamlConfiguration </text>
<text text-anchor="start" x="209.5" y="-590" font-family="arial" font-size="10.00"> + getType(parent : DunGen, name : String) : Module.ModuleType </text>
<text text-anchor="start" x="209.5" y="-577" font-family="arial" font-size="10.00"> + delete() </text>
<text text-anchor="start" x="209.5" y="-564" font-family="arial" font-size="10.00"> + fillVolumeRelative(v1 : Vector, v2 : Vector, m : Material) </text>
<text text-anchor="start" x="209.5" y="-551" font-family="arial" font-size="10.00"> + getNextEntryPos() : Vector </text>
<text text-anchor="start" x="209.5" y="-538" font-family="arial" font-size="10.00"> + getPlugin() : DunGen </text>
<text text-anchor="start" x="209.5" y="-525" font-family="arial" font-size="10.00"> + loadConfig() </text>
<text text-anchor="start" x="209.5" y="-512" font-family="arial" font-size="10.00"> + place() </text>
<text text-anchor="start" x="209.5" y="-499" font-family="arial" font-size="10.00"> + placeBuildPlan2D(origin : Vector, plan : boolean[][], m : Material, height : int, overwriteAir : boolean) </text>
<text text-anchor="start" x="209.5" y="-486" font-family="arial italic" font-size="10.00"> + postPlacementActions() </text>
<text text-anchor="start" x="209.5" y="-473" font-family="arial italic" font-size="10.00"> + prePlacementActions() </text>
<text text-anchor="start" x="209.5" y="-460" font-family="arial italic" font-size="10.00"> + register() </text>
<text text-anchor="start" x="209.5" y="-447" font-family="arial" font-size="10.00"> + toGlobal(relativePt : Vector) : Vector </text>
<text text-anchor="start" x="209.5" y="-434" font-family="arial" font-size="10.00"> + toRelative(globalPt : Vector) : Vector </text>
<text text-anchor="start" x="209.5" y="-421" font-family="arial italic" font-size="10.00"> + unregister() </text>
</a>
</g>
<g><a xlink:href="./Module.html" xlink:title="&lt;TABLE&gt;">
</a>
</g>
</g>
<!-- c432&#45;&gt;c428 -->
<g id="edge1" class="edge"><title>c432:p&#45;&gt;c428:p</title>
<path fill="none" stroke="black" d="M431.5,-403.519C431.5,-392.088 431.5,-380.941 431.5,-370.305"/>
<polygon fill="none" stroke="black" points="428,-403.631 431.5,-413.631 435,-403.631 428,-403.631"/>
</g>
</g>
</svg>
